<?xml version="1.0" encoding="UTF-8" standalone="no"?>
<svg
   xmlns:dc="http://purl.org/dc/elements/1.1/"
   xmlns:cc="http://creativecommons.org/ns#"
   xmlns:rdf="http://www.w3.org/1999/02/22-rdf-syntax-ns#"
   xmlns:svg="http://www.w3.org/2000/svg"
   xmlns="http://www.w3.org/2000/svg"
   xmlns:sodipodi="http://sodipodi.sourceforge.net/DTD/sodipodi-0.dtd"
   xmlns:inkscape="http://www.inkscape.org/namespaces/inkscape"
   version="1.1"
   width="364"
   height="364"
   viewBox="0 0 364 364"
   id="svg2450"
   sodipodi:docname="ic_launcher_twitter.svg"
   inkscape:version="0.92.3 (2405546, 2018-03-11)">
  <metadata
     id="metadata2456">
    <rdf:RDF>
      <cc:Work
         rdf:about="">
        <dc:format>image/svg+xml</dc:format>
        <dc:type
           rdf:resource="http://purl.org/dc/dcmitype/StillImage" />
        <dc:title>twitter</dc:title>
      </cc:Work>
    </rdf:RDF>
  </metadata>
  <defs
     id="defs2454" />
  <sodipodi:namedview
     pagecolor="#ffffff"
     bordercolor="#666666"
     borderopacity="1"
     objecttolerance="10"
     gridtolerance="10"
     guidetolerance="10"
     inkscape:pageopacity="0"
     inkscape:pageshadow="2"
     inkscape:window-width="1657"
     inkscape:window-height="935"
     id="namedview2452"
     showgrid="false"
     inkscape:zoom="1"
     inkscape:cx="451.53046"
     inkscape:cy="342.36028"
     inkscape:window-x="0"
     inkscape:window-y="27"
     inkscape:window-maximized="0"
     inkscape:current-layer="layer3"
     scale-x="1" />
  <title
     id="title2446">twitter</title>
  <g
     inkscape:groupmode="layer"
     id="layer3"
     inkscape:label="bottom"
     transform="translate(0,332)">
    <path
       style="display:inline;opacity:1;fill:#ffffff;fill-opacity:1;stroke:#000000;stroke-width:0.2076133;stroke-miterlimit:4;stroke-dasharray:none;stroke-opacity:1"
       d="M 181.95152,-331.89269 A 181.9394,181.87947 0 0 0 0.01284893,-150.02989 181.9394,181.87947 0 0 0 181.95152,31.861537 181.9394,181.87947 0 0 0 363.89017,-150.02989 181.9394,181.87947 0 0 0 181.95152,-331.89269 Z"
       id="path1059"
       inkscape:connector-curvature="0" />
  </g>
  <g
     inkscape:groupmode="layer"
     id="layer4"
     inkscape:label="top"
     transform="translate(0,332)">
    <path
       d="m 329.14303,-241.08532 c -10.75577,4.71654 -22.27002,7.96144 -34.40568,9.43308 12.38239,-7.43129 21.84966,-19.18608 26.36397,-33.18946 -11.61477,6.76404 -24.46319,11.66338 -38.12494,14.43298 -10.89285,-11.66338 -26.4645,-19.00326 -43.745,-19.00326 -33.1263,0 -59.9746,26.84588 -59.9746,59.9348 0,4.76225 0.57568,9.33254 1.57178,13.66518 -49.8311,-2.33086 -94.005603,-26.27919 -123.549697,-62.45761 -5.190549,8.81151 -8.142217,19.04897 -8.142217,30.19134 0,20.84968 10.609556,39.13085 26.647255,49.88017 -9.805384,-0.28335 -19.035059,-2.99811 -27.122446,-7.46786 v 0.72211 c 0,29.0762 20.652539,53.31702 48.06741,58.83794 -4.998645,1.32538 -10.335409,2.0932 -15.754413,2.0932 -3.847219,0 -7.520813,-0.37477 -11.185266,-1.05117 7.712715,23.80207 29.790828,41.132621 56.109104,41.653635 -20.46064,16.041727 -46.395104,25.60278 -74.339997,25.60278 -4.76105,0 -9.512961,-0.22852 -14.283149,-0.804375 26.656396,17.001492 58.119529,26.946445 92.104836,26.946445 110.27177,0 170.52964,-91.360145 170.52964,-170.481035 0,-2.52281 0,-5.09131 -0.19189,-7.66895 11.76098,-8.38192 21.94104,-19.00328 29.98273,-31.04142 z"
       id="path2448"
       inkscape:connector-curvature="0"
       style="stroke-width:9.13943768" />
  </g>
</svg>
