<?xml version="1.0" encoding="UTF-8" standalone="no"?>
<!-- Created with Inkscape (http://www.inkscape.org/) -->

<svg
   xmlns:dc="http://purl.org/dc/elements/1.1/"
   xmlns:cc="http://creativecommons.org/ns#"
   xmlns:rdf="http://www.w3.org/1999/02/22-rdf-syntax-ns#"
   xmlns:svg="http://www.w3.org/2000/svg"
   xmlns="http://www.w3.org/2000/svg"
   xmlns:sodipodi="http://sodipodi.sourceforge.net/DTD/sodipodi-0.dtd"
   xmlns:inkscape="http://www.inkscape.org/namespaces/inkscape"
   version="1.0"
   width="364"
   height="364"
   id="svg5681"
   sodipodi:docname="ic_launcher_google_search.svg"
   inkscape:version="0.92.3 (2405546, 2018-03-11)">
  <metadata
     id="metadata12">
    <rdf:RDF>
      <cc:Work
         rdf:about="">
        <dc:format>image/svg+xml</dc:format>
        <dc:type
           rdf:resource="http://purl.org/dc/dcmitype/StillImage" />
        <dc:title></dc:title>
      </cc:Work>
    </rdf:RDF>
  </metadata>
  <sodipodi:namedview
     pagecolor="#ffffff"
     bordercolor="#666666"
     borderopacity="1"
     objecttolerance="10"
     gridtolerance="10"
     guidetolerance="10"
     inkscape:pageopacity="0"
     inkscape:pageshadow="2"
     inkscape:window-width="1920"
     inkscape:window-height="1016"
     id="namedview10"
     showgrid="false"
     inkscape:zoom="1.7424311"
     inkscape:cx="103.00578"
     inkscape:cy="188.78678"
     inkscape:window-x="0"
     inkscape:window-y="27"
     inkscape:window-maximized="1"
     inkscape:current-layer="layer3" />
  <defs
     id="defs5683" />
  <g
     inkscape:groupmode="layer"
     id="layer2"
     inkscape:label="bottom">
    <path
       style="display:inline;opacity:1;fill:#ffffff;fill-opacity:1;stroke:#000000;stroke-width:0.2076133;stroke-miterlimit:4;stroke-dasharray:none;stroke-opacity:1"
       d="M 181.54666,1.5657386 A 181.9394,181.87947 0 0 0 -0.39200503,183.42854 181.9394,181.87947 0 0 0 181.54666,365.31996 181.9394,181.87947 0 0 0 363.48531,183.42854 181.9394,181.87947 0 0 0 181.54666,1.5657386 Z"
       id="path1059"
       inkscape:connector-curvature="0" />
  </g>
  <g
     inkscape:groupmode="layer"
     id="layer3"
     inkscape:label="top">
    <g
       transform="matrix(0.71373431,0,0,0.74218727,-67.067066,-116.97396)"
       id="layer1">
      <g
         transform="translate(9.4217615,7.5311219)"
         id="g5732">
        <path
           d="m 468.73119,413.45946 c 0.1711,-27.74056 1.58956,-55.36014 1.66481,-83.08819 0.0578,-21.31964 -3.27556,-62.08238 7.77987,-63.74688 14.0457,-2.1147 8.16892,28.03342 8.91381,40.25311 2.43573,39.95705 -2.17581,80.44448 -3.19369,120.43578 -0.3898,15.31485 1.12441,42.06481 -10.5349,48.50165 -12.05512,2.76813 -5.21059,-49.97998 -4.6299,-62.35547 z"
           style="fill:#67ba43"
           id="path5705"
           inkscape:connector-curvature="0" />
        <path
           d="m 518.85718,479.2287 c -25.43067,-4.08769 -17.53733,-36.82579 -19.48075,-55.7534 -2.22213,-21.64205 12.26765,-45.83103 33.90972,-46.7944 17.91925,-0.79766 49.95807,2.6115 48.36022,27.77085 -1.3199,20.78284 -22.423,36.81955 -42.06183,31.49052 -18.78507,-5.09736 -37.5432,17.59817 -19.35103,27.47314 15.64948,8.49476 31.87873,-13.12173 47.0347,-19.75563 19.68496,-8.61627 0.1792,31.95472 -13.99457,32.81655 -11.41594,0.69414 -23.05994,4.5778 -34.41646,2.75237 z m 37,-62.48654 c 24.86415,-10.38384 -2.43814,-29.43666 -19.20358,-27.32082 -18.04423,2.27722 -34.741,31.43623 -7.71587,30.1602 8.97609,-0.42382 18.32232,0.75098 26.91945,-2.83938 z M 133.1508,454.19742 c -25.21131,-7.70116 -34.306299,-38.61526 -32.10645,-63.92411 2.08567,-23.99521 -4.565377,-49.72424 4.09146,-72.52438 7.93805,-20.90701 19.14414,-46.6923 40.53434,-54.67924 20.35903,-7.60191 47.93051,-5.12606 66.01967,10.49288 13.8423,11.95201 5.49494,34.24137 -10.07021,17.03971 -15.99452,-17.67618 -43.97543,-21.74577 -61.49094,-3.95102 -15.69862,15.94891 -24.1104,37.15271 -23.23081,59.64439 0.97504,24.93256 -2.7342,51.1703 4.66808,75.00325 7.37298,23.73862 41.66646,20.92698 60.87231,11.01046 16.10904,-8.31755 37.34674,-51.71882 5.71493,-43.61845 -14.29042,3.65954 -53.14193,-10.94088 -25.60616,-18.24062 17.56298,-4.65596 53.84841,-1.9444 57.83605,5.50436 3.17438,5.92962 0.40357,48.63173 -13.90846,63.80473 -17.11304,18.14252 -49.69218,21.65667 -73.32381,14.43804 z"
           style="fill:#fd0e0e"
           id="path5701"
           inkscape:connector-curvature="0" />
        <path
           d="m 322.12164,471.24429 c -17.96098,-8.27554 -21.66024,-31.44931 -22.12316,-49.45336 -0.53958,-20.98563 14.64418,-45.19817 35.0748,-46.69633 20.16419,-1.47863 36.58025,22.12709 41.66416,41.6851 5.64609,21.72077 -4.42108,41.10644 -23.38472,50.6168 -9.58799,4.80843 -21.34605,8.40233 -31.23108,3.84779 z m 25.23551,-18.07281 c 21.43812,-10.73255 20.2636,-44.31574 0.58459,-55.7599 -20.0875,-11.68171 -30.27251,18.29754 -29.02887,34.75356 1.03764,13.73029 14.28363,28.09557 28.44428,21.00634 z"
           style="fill:#fbfb11"
           id="path5707"
           inkscape:connector-curvature="0" />
        <path
           d="m 404.35715,541.49237 c -14.21919,-5.22161 -24.91376,-38.69463 -11.06806,-43.41177 12.62238,-4.30037 2.63983,41.38112 28.34677,33.08393 21.47234,-6.93043 23.19296,-43.9428 11.33498,-52.31897 -12.86706,-9.08897 -48.7183,-4.35772 -45.24941,-30.77076 2.87284,-21.87453 8.51141,-51.28938 30.77101,-59.97364 25.02303,-9.76236 41.00649,15.77105 36.2731,39.71675 -6.133,31.02623 -0.17097,64.01516 -5.00069,95.22165 -3.04236,19.65773 -29.41128,24.32706 -45.4077,18.45281 z m 23.59454,-81.13644 c 11.91256,-14.09676 19.62006,-38.48167 9.22206,-51.29225 -16.59411,-20.44433 -37.05606,26.01092 -31.79139,43.36457 2.76118,9.10153 16.54052,15.06189 22.56933,7.92768 z m -187.50812,3.50372 c -23.06572,-8.05853 -22.13819,-36.72889 -16.40987,-56.56942 6.28086,-21.75433 33.2805,-40.1199 53.02269,-24.42114 14.83655,11.79786 22.76849,33.33423 20.68353,51.68446 -2.22797,19.60884 -23.55822,33.58318 -43.54504,31.45116 -4.6192,-0.49274 -9.34735,-0.60643 -13.75131,-2.14506 z m 28.9895,-16.82663 c 18.45625,-10.76113 17.03753,-52.71175 -6.86427,-54.13907 -24.07639,-1.43774 -38.18413,41.11102 -18.52477,54.54969 6.78972,4.64129 17.92295,3.94257 25.38904,-0.41062 z"
           style="fill:#0f0ffd"
           id="path5703"
           inkscape:connector-curvature="0" />
      </g>
    </g>
  </g>
</svg>
