<?xml version="1.0" encoding="UTF-8" standalone="no"?>
<svg
   xmlns:dc="http://purl.org/dc/elements/1.1/"
   xmlns:cc="http://creativecommons.org/ns#"
   xmlns:rdf="http://www.w3.org/1999/02/22-rdf-syntax-ns#"
   xmlns:svg="http://www.w3.org/2000/svg"
   xmlns="http://www.w3.org/2000/svg"
   xmlns:sodipodi="http://sodipodi.sourceforge.net/DTD/sodipodi-0.dtd"
   xmlns:inkscape="http://www.inkscape.org/namespaces/inkscape"
   enable-background="new 0 0 48 48"
   id="Layer_1"
   version="1.1"
   viewBox="0 0 364 364"
   xml:space="preserve"
   sodipodi:docname="ic_launcher_linkedin.svg"
   width="364"
   height="364"
   inkscape:version="0.92.3 (2405546, 2018-03-11)"><metadata
     id="metadata11"><rdf:RDF><cc:Work
         rdf:about=""><dc:format>image/svg+xml</dc:format><dc:type
           rdf:resource="http://purl.org/dc/dcmitype/StillImage" /><dc:title></dc:title></cc:Work></rdf:RDF></metadata><defs
     id="defs9" /><sodipodi:namedview
     pagecolor="#ffffff"
     bordercolor="#666666"
     borderopacity="1"
     objecttolerance="10"
     gridtolerance="10"
     guidetolerance="10"
     inkscape:pageopacity="0"
     inkscape:pageshadow="2"
     inkscape:window-width="1920"
     inkscape:window-height="1016"
     id="namedview7"
     showgrid="false"
     inkscape:zoom="3.4322728"
     inkscape:cx="219.59921"
     inkscape:cy="297.00658"
     inkscape:window-x="0"
     inkscape:window-y="27"
     inkscape:window-maximized="1"
     inkscape:current-layer="Layer_1" /><ellipse
     cx="181.91286"
     cy="182.23282"
     id="circle2"
     style="fill:#1686b0;stroke-width:7.57666683"
     rx="181.91286"
     ry="181.76718" /><path
     d="M 131.88682,264.78541 H 97.02019 V 152.69566 h 34.86663 z M 112.93757,138.30575 v 0 c -12.8855,0 -21.223171,-8.331 -21.223171,-19.69145 0,-11.36045 8.337671,-19.691435 21.223171,-19.691435 12.88549,0 21.22316,8.330985 21.22316,19.691435 0,11.36045 -7.5797,19.69145 -21.22316,19.69145 z m 159.17375,126.47966 h -40.17243 v -58.31698 c 0,-15.14726 -6.06377,-25.75034 -19.70723,-25.75034 -10.61157,0 -15.91737,6.81626 -18.94925,13.63254 -0.75797,2.2721 -0.75797,6.05891 -0.75797,9.08836 v 60.58905 h -39.41445 c 0,0 0.75797,-103.0014 0,-112.08975 h 39.41445 v 17.41935 c 2.27391,-7.57363 15.1594,-18.93408 34.86663,-18.93408 25.01302,0 44.72025,15.90462 44.72025,50.74333 z"
     id="path4"
     inkscape:connector-curvature="0"
     style="fill:#ffffff;stroke-width:7.57666683" /></svg>