<?xml version="1.0" encoding="UTF-8" standalone="no"?>
<svg
   xmlns:dc="http://purl.org/dc/elements/1.1/"
   xmlns:cc="http://creativecommons.org/ns#"
   xmlns:rdf="http://www.w3.org/1999/02/22-rdf-syntax-ns#"
   xmlns:svg="http://www.w3.org/2000/svg"
   xmlns="http://www.w3.org/2000/svg"
   xmlns:sodipodi="http://sodipodi.sourceforge.net/DTD/sodipodi-0.dtd"
   xmlns:inkscape="http://www.inkscape.org/namespaces/inkscape"
   enable-background="new 0 0 48 48"
   id="Layer_1"
   version="1.1"
   viewBox="0 0 364 364"
   xml:space="preserve"
   sodipodi:docname="ic_launcher_linkedin.svg"
   width="364"
   height="364"
   inkscape:version="0.92.3 (2405546, 2018-03-11)"><metadata
     id="metadata11"><rdf:RDF><cc:Work
         rdf:about=""><dc:format>image/svg+xml</dc:format><dc:type
           rdf:resource="http://purl.org/dc/dcmitype/StillImage" /><dc:title /></cc:Work></rdf:RDF></metadata><defs
     id="defs9"><linearGradient
       id="linearGradient3003"
       y2="425.39999"
       gradientUnits="userSpaceOnUse"
       x2="-395.85001"
       gradientTransform="matrix(-0.69906172,0,0,0.69934138,-162.7781,-177.62816)"
       y1="274.70999"
       x1="-344.14999"><stop
         stop-color="#FFF"
         offset="0"
         id="stop2" /><stop
         stop-color="#FFF"
         stop-opacity="0"
         offset="1"
         id="stop4" /></linearGradient></defs><sodipodi:namedview
     pagecolor="#ffffff"
     bordercolor="#666666"
     borderopacity="1"
     objecttolerance="10"
     gridtolerance="10"
     guidetolerance="10"
     inkscape:pageopacity="0"
     inkscape:pageshadow="2"
     inkscape:window-width="1920"
     inkscape:window-height="1016"
     id="namedview7"
     showgrid="false"
     inkscape:zoom="2.442996"
     inkscape:cx="231.71848"
     inkscape:cy="188.5845"
     inkscape:window-x="0"
     inkscape:window-y="27"
     inkscape:window-maximized="1"
     inkscape:current-layer="Layer_1" /><path
     d="M 131.88682,264.78541 H 97.02019 V 152.69566 h 34.86663 z M 112.93757,138.30575 v 0 c -12.8855,0 -21.223171,-8.331 -21.223171,-19.69145 0,-11.36045 8.337671,-19.691435 21.223171,-19.691435 12.88549,0 21.22316,8.330985 21.22316,19.691435 0,11.36045 -7.5797,19.69145 -21.22316,19.69145 z m 159.17375,126.47966 h -40.17243 v -58.31698 c 0,-15.14726 -6.06377,-25.75034 -19.70723,-25.75034 -10.61157,0 -15.91737,6.81626 -18.94925,13.63254 -0.75797,2.2721 -0.75797,6.05891 -0.75797,9.08836 v 60.58905 h -39.41445 c 0,0 0.75797,-103.0014 0,-112.08975 h 39.41445 v 17.41935 c 2.27391,-7.57363 15.1594,-18.93408 34.86663,-18.93408 25.01302,0 44.72025,15.90462 44.72025,50.74333 z"
     id="path4"
     inkscape:connector-curvature="0"
     style="fill:#ffffff;stroke-width:7.57666683" /><path
     style="display:inline;opacity:1;fill:#ffffff;fill-opacity:1;stroke:#000000;stroke-width:0.2076133;stroke-miterlimit:4;stroke-dasharray:none;stroke-opacity:1"
     d="M 180.81891,0.17263966 A 181.9394,181.87947 0 0 0 -1.1197638,182.03544 181.9394,181.87947 0 0 0 180.81891,363.92686 181.9394,181.87947 0 0 0 362.75756,182.03544 181.9394,181.87947 0 0 0 180.81891,0.17263966 Z"
     id="path1059"
     inkscape:connector-curvature="0" /><rect
     style="fill:#006699;stroke-width:1.38909054"
     transform="scale(-1,1)"
     rx="41.943539"
     ry="41.960312"
     height="277.84586"
     width="277.76257"
     y="43.021843"
     x="-320.77777"
     id="rect9" /><path
     inkscape:connector-curvature="0"
     style="opacity:0.7811159;fill:url(#linearGradient3003);stroke-width:1.38909054"
     d="M 247.39289,54.900913 H 116.40006 c -34.67449,0 -62.58824,28.152766 -62.58824,63.123167 v 127.84967 c 1.122356,27.29692 5.439564,10.04041 13.657169,-20.18891 9.550589,-35.13296 40.654721,-65.83938 78.533201,-88.85288 28.91092,-17.56439 61.27304,-28.78076 120.17814,-29.8478 33.40651,-0.60511 30.45806,-43.373302 -18.78647,-52.083247 z"
     id="path11" /><path
     inkscape:connector-curvature="0"
     style="fill:#ffffff;stroke-width:1.38909054"
     d="M 131.8881,276.21172 V 149.94037 H 89.934843 V 276.21172 Z M 110.91703,132.68997 c 14.62976,0 23.7362,-9.69626 23.7362,-21.81307 -0.27265,-12.39025 -9.10589,-21.817252 -23.45843,-21.817252 -14.350612,0 -23.734821,9.427142 -23.734821,21.817252 0,12.11751 9.104083,21.81307 23.183461,21.81307 h 0.27266 z"
     id="path13" /><path
     inkscape:connector-curvature="0"
     style="fill:#ffffff;stroke-width:1.38909054"
     d="m 155.10905,276.21172 h 41.95326 v -70.516 c 0,-3.77394 0.27265,-7.54399 1.38046,-10.24173 3.03289,-7.54024 9.93584,-15.34973 21.52521,-15.34973 15.18111,0 21.25439,11.5794 21.25439,28.55429 v 67.55248 h 41.95048 v -72.40277 c 0,-38.7856 -20.69747,-56.8321 -48.30014,-56.8321 -22.63209,0 -32.56905,12.65561 -38.08958,21.27539 h 0.28013 v -18.31326 h -41.95327 c 0.55055,11.84853 0,126.27134 0,126.27134 z"
     id="path15" /></svg>