<?xml version="1.0" encoding="UTF-8" standalone="no"?>
<svg
   xmlns:dc="http://purl.org/dc/elements/1.1/"
   xmlns:cc="http://creativecommons.org/ns#"
   xmlns:rdf="http://www.w3.org/1999/02/22-rdf-syntax-ns#"
   xmlns:svg="http://www.w3.org/2000/svg"
   xmlns="http://www.w3.org/2000/svg"
   xmlns:sodipodi="http://sodipodi.sourceforge.net/DTD/sodipodi-0.dtd"
   xmlns:inkscape="http://www.inkscape.org/namespaces/inkscape"
   version="1.1"
   width="364"
   height="364"
   viewBox="0 0 364 364"
   id="svg1500"
   sodipodi:docname="ic_launcher_amazon.svg"
   inkscape:version="0.92.3 (2405546, 2018-03-11)">
  <metadata
     id="metadata1506">
    <rdf:RDF>
      <cc:Work
         rdf:about="">
        <dc:format>image/svg+xml</dc:format>
        <dc:type
           rdf:resource="http://purl.org/dc/dcmitype/StillImage" />
        <dc:title>amazon</dc:title>
      </cc:Work>
    </rdf:RDF>
  </metadata>
  <defs
     id="defs1504" />
  <sodipodi:namedview
     pagecolor="#ffffff"
     bordercolor="#666666"
     borderopacity="1"
     objecttolerance="10"
     gridtolerance="10"
     guidetolerance="10"
     inkscape:pageopacity="0"
     inkscape:pageshadow="2"
     inkscape:window-width="1920"
     inkscape:window-height="1016"
     id="namedview1502"
     showgrid="false"
     inkscape:zoom="1.4142136"
     inkscape:cx="-50.100916"
     inkscape:cy="103.41284"
     inkscape:window-x="0"
     inkscape:window-y="27"
     inkscape:window-maximized="1"
     inkscape:current-layer="layer3" />
  <title
     id="title1496">amazon</title>
  <g
     inkscape:groupmode="layer"
     id="layer3"
     inkscape:label="bottom">
    <path
       style="display:inline;opacity:1;fill:#ffffff;fill-opacity:1;stroke:#000000;stroke-width:0.2076133;stroke-miterlimit:4;stroke-dasharray:none;stroke-opacity:1"
       d="M 181.72646,-1.0177672 A 181.9394,181.87947 0 0 0 -0.21222193,180.84504 181.9394,181.87947 0 0 0 181.72646,362.73646 181.9394,181.87947 0 0 0 363.66511,180.84504 181.9394,181.87947 0 0 0 181.72646,-1.0177672 Z"
       id="path1059"
       inkscape:connector-curvature="0" />
  </g>
  <g
     inkscape:groupmode="layer"
     id="layer4"
     inkscape:label="front">
    <path
       d="m 39.443352,253.88086 c 0.84828,-1.46924 2.210942,-1.57284 4.187253,-0.29196 43.713475,26.54056 91.370545,39.78259 142.790735,39.78259 34.3102,0 68.19626,-6.66811 101.66721,-20.01373 l 3.76312,-1.77063 c 1.69656,-0.78171 2.82459,-1.27146 3.52848,-1.61994 2.72532,-1.13018 4.70163,-0.59334 6.34405,1.61994 1.4529,2.15677 1.08291,4.21937 -1.45291,6.03708 -3.05922,2.35456 -7.23745,5.15177 -12.08347,8.19386 -14.98928,9.32405 -31.77439,16.52899 -50.3824,21.68076 -18.37337,5.10468 -36.61138,7.65702 -54.33501,7.65702 -27.26227,0 -53.0626,-4.95399 -77.41003,-14.90905 -24.302312,-9.95507 -45.96954,-23.98823 -65.335584,-42.04297 -1.218274,-0.93241 -1.831923,-1.9119 -1.831923,-2.79722 0,-0.59334 0.23463,-1.13018 0.613649,-1.61993 z m 78.962198,-78.09594 c 0,-12.61101 2.95996,-23.39488 8.93401,-32.32336 5.97406,-8.92848 14.10491,-15.70018 24.58206,-20.3057 9.53864,-4.21936 21.10773,-7.21436 35.0141,-9.02266 4.70163,-0.59335 12.45346,-1.32797 23.12915,-2.20386 v -4.61493 c 0,-11.725704 -1.27241,-19.571084 -3.61872,-23.545574 -3.66385,-5.44374 -9.40327,-8.19386 -17.34461,-8.19386 h -2.16582 c -5.78455,0.59335 -10.81106,2.44874 -14.98928,5.79221 -4.23238,3.38114 -6.9577,7.90189 -8.13085,13.78828 -0.74902,3.72962 -2.4907,5.839314 -5.26114,6.376144 l -30.31246,-3.974494 c -2.95996,-0.73462 -4.46701,-2.26037 -4.46701,-4.8598 0,-0.59335 0.0902,-1.13019 0.27975,-1.9119 2.95996,-16.18994 10.29668,-28.25469 21.90186,-36.15658 11.70446,-7.7512 25.24083,-12.262531 40.75352,-13.194935 h 6.53356 c 19.8353,0 35.58262,5.443735 46.76367,16.189935 1.64242,1.9119 3.23971,3.77671 4.89115,6.03708 1.40778,2.06259 2.6802,3.97449 3.38409,5.64152 0.8934,1.71412 1.83192,4.17227 2.34631,7.15785 0.70389,3.19278 1.27242,5.30246 1.64241,6.42323 0.32487,1.32797 0.74901,3.77671 0.8934,7.70411 0.14439,3.9274 0.23463,6.22545 0.23463,6.96949 v 66.323164 c 0,4.70911 0.74901,9.02266 1.97631,12.99715 1.27242,3.9274 2.53582,6.77171 3.80824,8.43874 l 6.15454,8.48582 c 1.08291,1.71412 1.59729,3.19278 1.59729,4.51133 0,1.51633 -0.70389,2.8443 -2.16582,3.9274 -14.42978,13.19494 -22.37112,20.35279 -23.59842,21.48298 -1.97631,1.71412 -4.51213,1.9119 -7.57135,0.59335 -2.3463,-2.10969 -4.51212,-4.17228 -6.34405,-6.22545 l -3.70896,-4.37006 c -0.74902,-0.9324 -2.02144,-2.64652 -3.85336,-5.30246 l -3.5736,-5.44374 c -9.77327,11.13235 -19.32093,18.10184 -28.90468,20.89905 -5.91991,1.9119 -13.15736,2.8443 -22.00113,2.8443 -13.34686,0 -24.53694,-4.26645 -33.22729,-12.95006 -8.64523,-8.6836 -12.97687,-20.94614 -12.97687,-36.93829 l -0.61365,-0.9324 z m 45.16638,-5.49083 c 0,7.11076 1.69656,12.79937 5.12578,17.12234 3.42921,4.26646 8.13085,6.42323 13.86125,6.42323 0.56852,0 1.31754,-0.0471 2.3463,-0.24487 1.08291,-0.19778 1.64241,-0.29197 2.02143,-0.29197 7.38184,-2.0155 12.97688,-6.91298 17.10998,-14.76778 2.02144,-3.53183 3.42922,-7.30854 4.36774,-11.43373 1.08291,-4.02158 1.40779,-7.40272 1.59729,-10.05866 0.18951,-2.44874 0.18951,-6.77171 0.18951,-12.61101 v -6.77171 c -10.10716,0 -17.85899,0.73463 -23.12915,2.26038 -15.32318,4.51133 -23.07501,14.66418 -23.07501,30.51506 l -0.42414,-0.24488 z m 110.21319,88.24879 c 0.37901,-0.73462 0.93852,-1.37506 1.59729,-2.10968 4.36774,-3.08918 8.60011,-5.15177 12.64297,-6.28196 6.6238,-1.66702 13.11224,-2.79721 19.41117,-3.04208 1.69656,-0.1507 3.33897,0 4.93627,0.39556 7.80597,0.73462 12.59785,2.10968 14.1049,4.12519 0.74901,1.13018 1.08291,2.89139 1.08291,4.90689 v 1.9119 c 0,6.37614 -1.69656,13.92956 -5.02651,22.56608 -3.33897,8.6836 -7.98646,15.70018 -13.86125,21.09682 -0.8934,0.78172 -1.69656,1.13019 -2.40045,1.13019 -0.37902,0 -0.70389,0 -1.08291,-0.15069 -1.08291,-0.53684 -1.27242,-1.46924 -0.74901,-2.995 6.48843,-15.84145 9.68302,-26.92671 9.68302,-33.16157 0,-1.86481 -0.37902,-3.38115 -1.03779,-4.31355 -1.74168,-2.06259 -6.6238,-3.23987 -14.75465,-3.23987 -2.91483,0 -6.38917,0.19778 -10.43204,0.59335 -4.36773,0.59334 -8.46474,1.13018 -12.02932,1.71411 -1.08291,0 -1.7868,-0.19778 -2.16582,-0.59335 -0.37902,-0.33905 -0.46926,-0.59334 -0.27975,-0.9324 0,-0.24487 0.0902,-0.39557 0.27975,-0.83822 v -0.73462 z"
       id="path1498"
       inkscape:connector-curvature="0"
       style="stroke-width:9.21913528" />
  </g>
</svg>
