<?xml version="1.0" encoding="UTF-8" standalone="no"?>
<svg
   xmlns:dc="http://purl.org/dc/elements/1.1/"
   xmlns:cc="http://creativecommons.org/ns#"
   xmlns:rdf="http://www.w3.org/1999/02/22-rdf-syntax-ns#"
   xmlns:svg="http://www.w3.org/2000/svg"
   xmlns="http://www.w3.org/2000/svg"
   xmlns:sodipodi="http://sodipodi.sourceforge.net/DTD/sodipodi-0.dtd"
   xmlns:inkscape="http://www.inkscape.org/namespaces/inkscape"
   version="1.1"
   width="364"
   height="364"
   viewBox="0 0 364 364"
   id="svg1500"
   sodipodi:docname="ic_launcher_copy_to_clipboard.svg"
   inkscape:version="0.92.3 (2405546, 2018-03-11)">
  <metadata
     id="metadata1506">
    <rdf:RDF>
      <cc:Work
         rdf:about="">
        <dc:format>image/svg+xml</dc:format>
        <dc:type
           rdf:resource="http://purl.org/dc/dcmitype/StillImage" />
        <dc:title>amazon</dc:title>
      </cc:Work>
    </rdf:RDF>
  </metadata>
  <defs
     id="defs1504" />
  <sodipodi:namedview
     pagecolor="#ffffff"
     bordercolor="#666666"
     borderopacity="1"
     objecttolerance="10"
     gridtolerance="10"
     guidetolerance="10"
     inkscape:pageopacity="0"
     inkscape:pageshadow="2"
     inkscape:window-width="1920"
     inkscape:window-height="1016"
     id="namedview1502"
     showgrid="false"
     inkscape:zoom="1.596591"
     inkscape:cx="157.57111"
     inkscape:cy="130.75869"
     inkscape:window-x="0"
     inkscape:window-y="27"
     inkscape:window-maximized="1"
     inkscape:current-layer="layer4" />
  <title
     id="title1496">amazon</title>
  <g
     inkscape:groupmode="layer"
     id="layer3"
     inkscape:label="bottom">
    <path
       style="display:inline;opacity:1;fill:#ffffff;fill-opacity:1;stroke:#000000;stroke-width:0.2076133;stroke-miterlimit:4;stroke-dasharray:none;stroke-opacity:1"
       d="M 181.72646,-1.0177672 A 181.9394,181.87947 0 0 0 -0.21222193,180.84504 181.9394,181.87947 0 0 0 181.72646,362.73646 181.9394,181.87947 0 0 0 363.66511,180.84504 181.9394,181.87947 0 0 0 181.72646,-1.0177672 Z"
       id="path1059"
       inkscape:connector-curvature="0" />
  </g>
  <g
     inkscape:groupmode="layer"
     id="layer4"
     inkscape:label="front">
    <path
       style="fill:#000000;fill-opacity:1;stroke-width:3.70199776"
       d="m 160.3451,21.316731 c -16.05098,8.13e-4 -29.0626,12.132701 -29.06347,27.098457 h -22.39918 v 8.429061 c 0,9.423432 8.19372,17.063241 18.30049,17.063241 h 65.91496 c 10.10239,0 18.31888,-7.639809 18.31888,-17.063241 V 48.415188 H 189.4146 C 189.41373,33.447236 176.39835,21.314454 160.3451,21.316731 Z m 0,15.810314 c 6.69266,-0.0081 12.12301,5.047986 12.12502,11.288143 h -24.23171 c 0.002,-6.233488 5.42119,-11.286272 12.10669,-11.288143 z M 74.700214,57.977618 c -9.432909,0 -17.085013,7.134653 -17.085013,15.929872 v 191.20377 c 0,8.79181 7.652104,15.93557 17.085013,15.93557 h 18.37384 v 18.48697 c 0,8.07745 6.974236,14.58008 15.637336,14.58008 h 173.79415 c 8.66311,0 15.63726,-6.50263 15.63726,-14.58008 V 105.62482 c 0,-8.07738 -6.97415,-14.580077 -15.63726,-14.580077 H 262.68403 V 73.90749 c 0,-8.795219 -7.66231,-15.929872 -17.09111,-15.929872 h -27.34095 v 2.972948 c 0,10.679938 -9.31288,19.32998 -20.7622,19.32998 h -74.69871 c -11.4543,0 -20.7438,-8.650042 -20.7438,-19.32998 V 57.977618 Z M 262.68403,106.47345 h 12.65642 c 3.46523,0 6.25493,2.60101 6.25493,5.83202 v 180.54206 c 0,3.23102 -2.7897,5.83195 -6.25493,5.83195 H 115.87649 c -3.46522,0 -6.25494,-2.60093 -6.25494,-5.83195 v -11.8007 h 135.97137 c 9.4288,0 17.09111,-7.14433 17.09111,-15.93557 z m -127.62132,9.24913 h 0.0262 c 5.90655,0.20171 8.77398,6.82437 4.67294,10.79267 l -25.03197,25.03106 c -2.90354,2.903 -7.91605,2.65209 -10.46963,-0.52378 L 91.444864,135.09265 c -5.887696,-6.8495 5.532843,-14.83285 10.933966,-7.64314 l 7.91633,9.84726 19.46727,-19.47239 c 1.18964,-1.22959 2.84589,-1.97914 4.61789,-2.09017 0.22766,-0.009 0.45621,-0.0162 0.68388,-0.005 z m 24.48214,21.9214 h 60.41754 c 4.71436,0 8.53941,3.57212 8.53941,7.96774 0,4.3961 -3.82505,7.96783 -8.53941,7.96783 h -60.41754 c -4.71872,0 -8.54551,-3.57173 -8.54551,-7.96783 -4.4e-4,-4.39521 3.82679,-7.96774 8.54551,-7.96774 z m -24.48214,25.87961 h 0.0262 c 5.90655,0.2017 8.77398,6.82428 4.67294,10.79266 l -25.03197,25.03098 c -2.9017,2.90431 -7.91405,2.65616 -10.46963,-0.51809 L 91.444864,182.89358 c -5.887696,-6.8495 5.532843,-14.83278 10.933966,-7.64307 l 7.91633,9.84718 19.46727,-19.47239 c 1.18964,-1.2295 2.84589,-1.97915 4.61789,-2.09016 0.22766,-0.009 0.45621,-0.0162 0.68388,-0.005 z m 24.48214,21.92131 h 60.41754 c 4.71436,0 8.53941,3.5718 8.53941,7.96775 0,4.39577 -3.82505,7.96781 -8.53941,7.96781 h -60.41754 c -4.71872,0 -8.54551,-3.57204 -8.54551,-7.96781 -4.4e-4,-4.39562 3.82679,-7.96775 8.54551,-7.96775 z m -24.48214,25.87961 h 0.0262 c 5.90655,0.20171 8.77398,6.82429 4.67294,10.79267 l -25.03197,25.03098 c -2.9017,2.90439 -7.91405,2.65624 -10.46963,-0.51809 L 91.444864,230.69459 c -5.887085,-6.84951 5.532756,-14.83237 10.933966,-7.64323 l 7.91633,9.84726 19.46727,-19.47231 c 1.18964,-1.22959 2.84589,-1.97923 4.61789,-2.09017 0.22766,-0.009 0.45621,-0.0162 0.68388,-0.005 z m 24.48214,21.92132 h 60.41754 c 4.71436,0 8.53941,3.5722 8.53941,7.96782 0,4.39611 -3.82505,7.96774 -8.53941,7.96774 h -60.41754 c -4.71872,0 -8.54551,-3.57163 -8.54551,-7.96774 -4.4e-4,-4.39562 3.82679,-7.96782 8.54551,-7.96782 z"
       id="bimetrical-path-clipboard"
       inkscape:connector-curvature="0" />
  </g>
</svg>
