<?xml version="1.0" encoding="UTF-8" standalone="no"?>
<svg
   xmlns:dc="http://purl.org/dc/elements/1.1/"
   xmlns:cc="http://creativecommons.org/ns#"
   xmlns:rdf="http://www.w3.org/1999/02/22-rdf-syntax-ns#"
   xmlns:svg="http://www.w3.org/2000/svg"
   xmlns="http://www.w3.org/2000/svg"
   xmlns:sodipodi="http://sodipodi.sourceforge.net/DTD/sodipodi-0.dtd"
   xmlns:inkscape="http://www.inkscape.org/namespaces/inkscape"
   version="1.1"
   x="0px"
   y="0px"
   viewBox="0 0 364 364"
   enable-background="new 0 0 100 100"
   xml:space="preserve"
   id="svg952"
   sodipodi:docname="ic_launcher_reddit.svg"
   width="364"
   height="364"
   style="fill:#4380c9"
   inkscape:version="0.92.3 (2405546, 2018-03-11)"><metadata
     id="metadata958"><rdf:RDF><cc:Work
         rdf:about=""><dc:format>image/svg+xml</dc:format><dc:type
           rdf:resource="http://purl.org/dc/dcmitype/StillImage" /><dc:title></dc:title></cc:Work></rdf:RDF></metadata><defs
     id="defs956" /><sodipodi:namedview
     pagecolor="#ffffff"
     bordercolor="#666666"
     borderopacity="1"
     objecttolerance="10"
     gridtolerance="10"
     guidetolerance="10"
     inkscape:pageopacity="0"
     inkscape:pageshadow="2"
     inkscape:window-width="1920"
     inkscape:window-height="1016"
     id="namedview954"
     showgrid="false"
     inkscape:zoom="1.4548722"
     inkscape:cx="53.279474"
     inkscape:cy="184.30189"
     inkscape:window-x="0"
     inkscape:window-y="27"
     inkscape:window-maximized="1"
     inkscape:current-layer="layer1" /><g
     inkscape:groupmode="layer"
     id="layer1"
     inkscape:label="bottom"><path
       style="display:inline;opacity:1;fill:#ffffff;fill-opacity:1;stroke:#000000;stroke-width:0.2076133;stroke-miterlimit:4;stroke-dasharray:none;stroke-opacity:1"
       d="M 182.26004,0.34889092 A 181.9394,181.87947 0 0 0 0.32135955,182.21169 181.9394,181.87947 0 0 0 182.26004,364.10311 181.9394,181.87947 0 0 0 364.19869,182.21169 181.9394,181.87947 0 0 0 182.26004,0.34889092 Z"
       id="path1059"
       inkscape:connector-curvature="0" /></g><g
     inkscape:groupmode="layer"
     id="layer2"
     inkscape:label="front"><g
       id="g936"
       style="fill:#ff2a2a"
       transform="matrix(3.9750654,0,0,4.0596458,-16.267404,-34.951264)"><path
         d="M 70.18,43.98 H 29.82 c -3.3,0 -6,2.71 -6,6 v 23.94 c 0,3.3 2.7,6 6,6 h 40.36 c 3.301,0 6,-2.7 6,-6 V 49.98 c 0,-3.29 -2.7,-6 -6,-6 z M 36.44,66.99 c -2.78,0 -5.04,-2.25 -5.04,-5.04 0,-2.78 2.26,-5.03 5.04,-5.03 2.78,0 5.04,2.25 5.04,5.03 0,2.79 -2.26,5.04 -5.04,5.04 z m 27.12,0 c -2.779,0 -5.029,-2.25 -5.029,-5.04 0,-2.78 2.25,-5.03 5.029,-5.03 2.78,0 5.04,2.25 5.04,5.03 0,2.79 -2.26,5.04 -5.04,5.04 z"
         id="path934"
         style="fill:#ff2a2a"
         inkscape:connector-curvature="0" /></g><path
       d="m 204.30896,57.336667 c 0,8.362873 -4.49182,15.629618 -11.17391,19.44569 V 132.11533 H 171.83268 V 76.782357 c -6.68209,-3.816072 -11.1739,-11.082817 -11.1739,-19.44569 0,-12.300731 9.77865,-22.287466 21.8231,-22.287466 12.04445,0 21.82708,9.986735 21.82708,22.287466 z"
       id="path938"
       style="fill:#ff2a2a;stroke-width:4.01713324"
       inkscape:connector-curvature="0" /><g
       id="g944"
       style="fill:#ff2a2a"
       transform="matrix(3.9750654,0,0,4.0596458,-16.267404,-34.951264)"><path
         d="m 20.82,51.145 v 21.62 h -5.54 c -3.3,0 -6,-2.699 -6,-6 v -9.62 c 0,-3.299 2.7,-6 6,-6 z"
         id="path940"
         style="fill:#ff2a2a"
         inkscape:connector-curvature="0" /><path
         d="m 20.82,51.145 v 21.62 h -5.54 c -3.3,0 -6,-2.699 -6,-6 v -9.62 c 0,-3.299 2.7,-6 6,-6 z"
         id="path942"
         style="fill:#ff2a2a"
         inkscape:connector-curvature="0" /></g><g
       id="g950"
       style="fill:#ff2a2a"
       transform="matrix(3.9750654,0,0,4.0596458,-16.267404,-34.951264)"><path
         d="m 90.72,57.145 v 9.62 c 0,3.301 -2.7,6 -6,6 h -5.54 v -21.62 h 5.54 c 3.3,0 6,2.701 6,6 z"
         id="path946"
         style="fill:#ff2a2a"
         inkscape:connector-curvature="0" /><path
         d="m 90.72,57.145 v 9.62 c 0,3.301 -2.7,6 -6,6 h -5.54 v -21.62 h 5.54 c 3.3,0 6,2.701 6,6 z"
         id="path948"
         style="fill:#ff2a2a"
         inkscape:connector-curvature="0" /></g></g></svg>