<?xml version="1.0" encoding="UTF-8" standalone="no"?>
<!-- Generator: Adobe Illustrator 23.0.6, SVG Export Plug-In . SVG Version: 6.00 Build 0)  -->

<svg
   xmlns:dc="http://purl.org/dc/elements/1.1/"
   xmlns:cc="http://creativecommons.org/ns#"
   xmlns:rdf="http://www.w3.org/1999/02/22-rdf-syntax-ns#"
   xmlns:svg="http://www.w3.org/2000/svg"
   xmlns="http://www.w3.org/2000/svg"
   xmlns:sodipodi="http://sodipodi.sourceforge.net/DTD/sodipodi-0.dtd"
   xmlns:inkscape="http://www.inkscape.org/namespaces/inkscape"
   version="1.1"
   id="Capa_1"
   x="0px"
   y="0px"
   viewBox="0 0 363.99999 363.99999"
   xml:space="preserve"
   sodipodi:docname="ic_launcher_lilo.svg"
   width="364"
   height="364"
   inkscape:version="0.92.3 (2405546, 2018-03-11)"><metadata
   id="metadata13"><rdf:RDF><cc:Work
       rdf:about=""><dc:format>image/svg+xml</dc:format><dc:type
         rdf:resource="http://purl.org/dc/dcmitype/StillImage" /><dc:title></dc:title></cc:Work></rdf:RDF></metadata><defs
   id="defs11" /><sodipodi:namedview
   pagecolor="#ffffff"
   bordercolor="#666666"
   borderopacity="1"
   objecttolerance="10"
   gridtolerance="10"
   guidetolerance="10"
   inkscape:pageopacity="0"
   inkscape:pageshadow="2"
   inkscape:window-width="1920"
   inkscape:window-height="1016"
   id="namedview9"
   showgrid="false"
   inkscape:zoom="1.2916432"
   inkscape:cx="-26.846492"
   inkscape:cy="244.405"
   inkscape:window-x="0"
   inkscape:window-y="27"
   inkscape:window-maximized="1"
   inkscape:current-layer="Capa_1" />
<style
   type="text/css"
   id="style2">
	.st0{fill:#3692DC;}
	.st1{fill:#FEFEFE;}
</style>
<ellipse
   class="st0"
   cx="183.07681"
   cy="182.16029"
   id="circle4"
   style="fill:#3692dc;stroke-width:1.49292457"
   rx="180.94785"
   ry="182.13336" />
<path
   class="st1"
   d="m 183.86847,306.81979 c -43.50189,-0.50326 -77.04123,-30.08046 -85.387756,-68.60257 -3.773712,-17.418 -2.132383,-34.44058 4.187396,-51.13513 9.67536,-25.55709 22.4295,-49.50703 36.8592,-72.59124 12.61873,-20.185943 25.46216,-40.229599 38.19547,-60.343652 1.46574,-2.31561 2.86898,-4.673158 4.2871,-7.020223 0.73659,-1.219215 1.44639,-1.207232 2.17554,-0.006 0.19345,0.319034 0.39137,0.638066 0.58331,0.957099 13.63062,22.645348 28.47995,44.513333 42.30847,67.031366 12.53987,20.41811 24.18243,41.30802 33.1093,63.62984 3.52223,8.80562 7.08017,17.59025 8.44025,27.08635 3.75288,26.18018 -2.50142,49.64932 -19.38789,69.90117 -15.69009,18.81545 -36.03779,28.87772 -60.37647,30.74549 -1.97763,0.15127 -3.95675,0.27559 -4.99392,0.34749 z m -5.5579,-27.48177 c 8.90751,0.0434 17.32546,-1.87526 24.98747,-6.37616 14.9892,-8.80561 23.59911,-21.72121 24.31933,-39.47621 0.0537,-1.31658 0.56993,-3.56329 -0.45237,-3.78646 -1.64282,-0.35798 -1.75442,1.94115 -2.43149,3.11694 -8.63371,15.00952 -21.53666,23.3583 -38.71331,24.0428 -26.7166,1.06344 -47.80387,-20.90789 -47.20864,-46.57881 0.0239,-0.99903 0.0744,-1.99808 0.0535,-2.99411 -0.007,-0.33102 -0.10714,-0.81182 -0.33332,-0.9556 -0.56248,-0.35798 -0.87796,0.18272 -1.16812,0.55718 -0.38095,0.49127 -0.74106,1.00353 -1.05951,1.53825 -9.03399,15.19375 -9.87922,30.79791 -1.10115,46.21184 9.44172,16.58223 24.39819,24.15813 43.10755,24.70034 z"
   id="path6"
   inkscape:connector-curvature="0"
   style="fill:#fefefe;stroke-width:1.49292457" />
</svg>