<?xml version="1.0" encoding="UTF-8" standalone="no"?>
<!-- Generated by IcoMoon.io -->

<svg
   xmlns:osb="http://www.openswatchbook.org/uri/2009/osb"
   xmlns:dc="http://purl.org/dc/elements/1.1/"
   xmlns:cc="http://creativecommons.org/ns#"
   xmlns:rdf="http://www.w3.org/1999/02/22-rdf-syntax-ns#"
   xmlns:svg="http://www.w3.org/2000/svg"
   xmlns="http://www.w3.org/2000/svg"
   xmlns:xlink="http://www.w3.org/1999/xlink"
   xmlns:sodipodi="http://sodipodi.sourceforge.net/DTD/sodipodi-0.dtd"
   xmlns:inkscape="http://www.inkscape.org/namespaces/inkscape"
   version="1.1"
   width="364"
   height="364"
   viewBox="0 0 364 364"
   id="svg6"
   sodipodi:docname="Share-it-all.svg"
   inkscape:version="0.92.3 (2405546, 2018-03-11)"
   inkscape:export-filename="/home/obouillet/perso/Share-it-all.svg.png"
   inkscape:export-xdpi="1907.45"
   inkscape:export-ydpi="1907.45">
  <metadata
     id="metadata12">
    <rdf:RDF>
      <cc:Work
         rdf:about="">
        <dc:format>image/svg+xml</dc:format>
        <dc:type
           rdf:resource="http://purl.org/dc/dcmitype/StillImage" />
        <dc:title>share-alt</dc:title>
      </cc:Work>
    </rdf:RDF>
  </metadata>
  <defs
     id="defs10">
    <linearGradient
       id="linearGradient1065"
       osb:paint="gradient">
      <stop
         style="stop-color:#000000;stop-opacity:1;"
         offset="0"
         id="stop1061" />
      <stop
         style="stop-color:#000000;stop-opacity:0;"
         offset="1"
         id="stop1063" />
    </linearGradient>
    <linearGradient
       inkscape:collect="always"
       id="linearGradient6229">
      <stop
         style="stop-color:#ff0000;stop-opacity:1;"
         offset="0"
         id="stop6225" />
      <stop
         style="stop-color:#ff0000;stop-opacity:0;"
         offset="1"
         id="stop6227" />
    </linearGradient>
    <radialGradient
       inkscape:collect="always"
       xlink:href="#linearGradient6229"
       id="radialGradient6231"
       cx="5.0615621"
       cy="12.000283"
       fx="5.0615621"
       fy="12.000283"
       r="2.0548549"
       gradientTransform="matrix(14.074272,0,0,14.424892,-18.981328,8.6758626)"
       gradientUnits="userSpaceOnUse" />
  </defs>
  <sodipodi:namedview
     pagecolor="#ffffff"
     bordercolor="#666666"
     borderopacity="1"
     objecttolerance="10"
     gridtolerance="10"
     guidetolerance="10"
     inkscape:pageopacity="0"
     inkscape:pageshadow="2"
     inkscape:window-width="1920"
     inkscape:window-height="1016"
     id="namedview8"
     showgrid="false"
     inkscape:zoom="256"
     inkscape:cx="364.82462"
     inkscape:cy="364.48888"
     inkscape:window-x="0"
     inkscape:window-y="27"
     inkscape:window-maximized="1"
     inkscape:current-layer="layer2" />
  <title
     id="title2">share-alt</title>
  <path
     style="opacity:0;fill:#000000;fill-opacity:0.78431373;stroke:#ffffff;stroke-width:0.00285039;stroke-miterlimit:4;stroke-dasharray:none;stroke-opacity:1"
     d="m 49.158774,211.34787 c -11.422716,-1.47905 -20.75651,-9.23964 -24.287825,-20.19393 -1.055372,-3.27387 -1.450702,-5.83121 -1.450702,-9.38502 0,-3.55362 0.395334,-6.11098 1.450702,-9.38484 3.304934,-10.25212 11.592441,-17.6628 22.185346,-19.83825 2.702863,-0.55493 8.138933,-0.50588 10.880806,0.10089 10.373252,2.28549 18.45232,9.61948 21.745902,19.74033 1.033963,3.1773 1.453095,5.88397 1.454769,9.39497 0.0015,3.46479 -0.412031,6.11696 -1.462334,9.37493 -3.230272,10.0204 -11.413993,17.47729 -21.635746,19.7141 -1.903948,0.41599 -7.171152,0.70127 -8.880918,0.4799 z"
     id="path4602"
     inkscape:connector-curvature="0" />
  <path
     style="opacity:0;fill:#000000;fill-opacity:0.78431373;stroke:#ffffff;stroke-width:0.00285039;stroke-miterlimit:4;stroke-dasharray:none;stroke-opacity:1"
     d="m 49.158774,211.34787 c -11.422716,-1.47905 -20.75651,-9.23964 -24.287825,-20.19393 -1.055372,-3.27387 -1.450702,-5.83121 -1.450702,-9.38502 0,-3.55362 0.395334,-6.11098 1.450702,-9.38484 3.304934,-10.25212 11.592441,-17.6628 22.185346,-19.83825 2.702863,-0.55493 8.138933,-0.50588 10.880806,0.10089 10.373252,2.28549 18.45232,9.61948 21.745902,19.74033 1.033963,3.1773 1.453095,5.88397 1.454769,9.39497 0.0015,3.46479 -0.412031,6.11696 -1.462334,9.37493 -3.230272,10.0204 -11.413993,17.47729 -21.635746,19.7141 -1.903948,0.41599 -7.171152,0.70127 -8.880918,0.4799 z"
     id="path4604"
     inkscape:connector-curvature="0" />
  <path
     style="opacity:0;fill:#000000;fill-opacity:0.78431373;stroke:#ffffff;stroke-width:0.00285039;stroke-miterlimit:4;stroke-dasharray:none;stroke-opacity:1"
     d="m 49.158774,211.34787 c -11.422716,-1.47905 -20.75651,-9.23964 -24.287825,-20.19393 -1.055372,-3.27387 -1.450702,-5.83121 -1.450702,-9.38502 0,-3.55362 0.395334,-6.11098 1.450702,-9.38484 3.304934,-10.25212 11.592441,-17.6628 22.185346,-19.83825 2.702863,-0.55493 8.138933,-0.50588 10.880806,0.10089 10.373252,2.28549 18.45232,9.61948 21.745902,19.74033 1.033963,3.1773 1.453095,5.88397 1.454769,9.39497 0.0015,3.46479 -0.412031,6.11696 -1.462334,9.37493 -3.230272,10.0204 -11.413993,17.47729 -21.635746,19.7141 -1.903948,0.41599 -7.171152,0.70127 -8.880918,0.4799 z"
     id="path4606"
     inkscape:connector-curvature="0" />
  <path
     style="opacity:0;fill:#000000;fill-opacity:0.78431373;stroke:#ffffff;stroke-width:0.00285039;stroke-miterlimit:4;stroke-dasharray:none;stroke-opacity:1"
     d="m 49.158774,211.34787 c -11.422716,-1.47905 -20.75651,-9.23964 -24.287825,-20.19393 -1.055372,-3.27387 -1.450702,-5.83121 -1.450702,-9.38502 0,-3.55362 0.395334,-6.11098 1.450702,-9.38484 3.304934,-10.25212 11.592441,-17.6628 22.185346,-19.83825 2.702863,-0.55493 8.138933,-0.50588 10.880806,0.10089 10.373252,2.28549 18.45232,9.61948 21.745902,19.74033 1.033963,3.1773 1.453095,5.88397 1.454769,9.39497 0.0015,3.46479 -0.412031,6.11696 -1.462334,9.37493 -3.230272,10.0204 -11.413993,17.47729 -21.635746,19.7141 -1.903948,0.41599 -7.171152,0.70127 -8.880918,0.4799 z"
     id="path4608"
     inkscape:connector-curvature="0" />
  <path
     style="opacity:0;fill:#000000;fill-opacity:0.78431373;stroke:#ffffff;stroke-width:0.00285039;stroke-miterlimit:4;stroke-dasharray:none;stroke-opacity:1"
     d="m 49.158774,211.34787 c -11.422716,-1.47905 -20.75651,-9.23964 -24.287825,-20.19393 -1.055372,-3.27387 -1.450702,-5.83121 -1.450702,-9.38502 0,-3.55362 0.395334,-6.11098 1.450702,-9.38484 3.304934,-10.25212 11.592441,-17.6628 22.185346,-19.83825 2.702863,-0.55493 8.138933,-0.50588 10.880806,0.10089 10.373252,2.28549 18.45232,9.61948 21.745902,19.74033 1.033963,3.1773 1.453095,5.88397 1.454769,9.39497 0.0015,3.46479 -0.412031,6.11696 -1.462334,9.37493 -3.230272,10.0204 -11.413993,17.47729 -21.635746,19.7141 -1.903948,0.41599 -7.171152,0.70127 -8.880918,0.4799 z"
     id="path4610"
     inkscape:connector-curvature="0" />
  <path
     style="opacity:0;fill:#ff0000;fill-opacity:0.78431373;stroke:#ffffff;stroke-width:0.00285039;stroke-miterlimit:4;stroke-dasharray:none;stroke-opacity:1"
     d="m 49.158774,211.34787 c -11.422716,-1.47905 -20.75651,-9.23964 -24.287825,-20.19393 -1.055372,-3.27387 -1.450702,-5.83121 -1.450702,-9.38502 0,-3.55362 0.395334,-6.11098 1.450702,-9.38484 3.304934,-10.25212 11.592441,-17.6628 22.185346,-19.83825 2.702863,-0.55493 8.138933,-0.50588 10.880806,0.10089 10.373252,2.28549 18.45232,9.61948 21.745902,19.74033 1.033963,3.1773 1.453095,5.88397 1.454769,9.39497 0.0015,3.46479 -0.412031,6.11696 -1.462334,9.37493 -3.230272,10.0204 -11.413993,17.47729 -21.635746,19.7141 -1.903948,0.41599 -7.171152,0.70127 -8.880918,0.4799 z"
     id="path4612"
     inkscape:connector-curvature="0" />
  <path
     style="opacity:0;fill:#ff0000;fill-opacity:0.78431373;stroke:#ffffff;stroke-width:0.00285039;stroke-miterlimit:4;stroke-dasharray:none;stroke-opacity:1"
     d="m 49.158774,211.34787 c -11.422716,-1.47905 -20.75651,-9.23964 -24.287825,-20.19393 -1.055372,-3.27387 -1.450702,-5.83121 -1.450702,-9.38502 0,-3.55362 0.395334,-6.11098 1.450702,-9.38484 3.304934,-10.25212 11.592441,-17.6628 22.185346,-19.83825 2.702863,-0.55493 8.138933,-0.50588 10.880806,0.10089 10.373252,2.28549 18.45232,9.61948 21.745902,19.74033 1.033963,3.1773 1.453095,5.88397 1.454769,9.39497 0.0015,3.46479 -0.412031,6.11696 -1.462334,9.37493 -3.230272,10.0204 -11.413993,17.47729 -21.635746,19.7141 -1.903948,0.41599 -7.171152,0.70127 -8.880918,0.4799 z"
     id="path4614"
     inkscape:connector-curvature="0" />
  <path
     style="opacity:0;fill:#ff0000;fill-opacity:0.78431373;stroke:#ffffff;stroke-width:0.00285039;stroke-miterlimit:4;stroke-dasharray:none;stroke-opacity:1"
     d="m 49.158774,211.34787 c -11.422716,-1.47905 -20.75651,-9.23964 -24.287825,-20.19393 -1.055372,-3.27387 -1.450702,-5.83121 -1.450702,-9.38502 0,-3.55362 0.395334,-6.11098 1.450702,-9.38484 3.304934,-10.25212 11.592441,-17.6628 22.185346,-19.83825 2.702863,-0.55493 8.138933,-0.50588 10.880806,0.10089 10.373252,2.28549 18.45232,9.61948 21.745902,19.74033 1.033963,3.1773 1.453095,5.88397 1.454769,9.39497 0.0015,3.46479 -0.412031,6.11696 -1.462334,9.37493 -3.230272,10.0204 -11.413993,17.47729 -21.635746,19.7141 -1.903948,0.41599 -7.171152,0.70127 -8.880918,0.4799 z"
     id="path4616"
     inkscape:connector-curvature="0" />
  <path
     style="opacity:0;fill:#ff0000;fill-opacity:0.78431373;stroke:#ffffff;stroke-width:0.00285039;stroke-miterlimit:4;stroke-dasharray:none;stroke-opacity:1"
     d="m 49.158774,211.34787 c -11.422716,-1.47905 -20.75651,-9.23964 -24.287825,-20.19393 -1.055372,-3.27387 -1.450702,-5.83121 -1.450702,-9.38502 0,-3.55362 0.395334,-6.11098 1.450702,-9.38484 3.304934,-10.25212 11.592441,-17.6628 22.185346,-19.83825 2.702863,-0.55493 8.138933,-0.50588 10.880806,0.10089 10.373252,2.28549 18.45232,9.61948 21.745902,19.74033 1.033963,3.1773 1.453095,5.88397 1.454769,9.39497 0.0015,3.46479 -0.412031,6.11696 -1.462334,9.37493 -3.230272,10.0204 -11.413993,17.47729 -21.635746,19.7141 -1.903948,0.41599 -7.171152,0.70127 -8.880918,0.4799 z"
     id="path4618"
     inkscape:connector-curvature="0" />
  <path
     style="opacity:0;fill:#ff0000;fill-opacity:0.78431373;stroke:#ffffff;stroke-width:0.00285039;stroke-miterlimit:4;stroke-dasharray:none;stroke-opacity:1"
     d="m 47.450867,211.15874 c -3.66936,-0.702 -7.600716,-2.23154 -10.448377,-4.06549 -6.838968,-4.40467 -11.463878,-11.26264 -13.182411,-19.54769 -0.643687,-3.10306 -0.643687,-8.45004 0,-11.55328 1.70227,-8.20635 6.239483,-14.98936 12.999675,-19.43373 2.523258,-1.65881 6.431745,-3.26971 9.726927,-4.00871 2.440012,-0.5475 9.009447,-0.5475 11.453029,-7.4e-4 10.252547,2.29453 18.540191,9.80446 21.77324,19.72977 1.055645,3.24075 1.402701,5.58875 1.402701,9.49007 0,2.95376 -0.08165,4.00435 -0.449197,5.77663 -1.172843,5.65569 -3.582103,10.46653 -7.264318,14.50555 -4.064442,4.45831 -9.110149,7.42085 -15.060542,8.84258 -2.334148,0.5579 -8.624323,0.70943 -10.950701,0.26463 z"
     id="path4620"
     inkscape:connector-curvature="0" />
  <path
     style="opacity:0;fill:#ff0000;fill-opacity:0.78431373;stroke:#ffffff;stroke-width:0.00285039;stroke-miterlimit:4;stroke-dasharray:none;stroke-opacity:1"
     d="m 47.450867,211.15874 c -3.66936,-0.702 -7.600716,-2.23154 -10.448377,-4.06549 -6.838968,-4.40467 -11.463878,-11.26264 -13.182411,-19.54769 -0.643687,-3.10306 -0.643687,-8.45004 0,-11.55328 1.70227,-8.20635 6.239483,-14.98936 12.999675,-19.43373 2.523258,-1.65881 6.431745,-3.26971 9.726927,-4.00871 2.440012,-0.5475 9.009447,-0.5475 11.453029,-7.4e-4 10.252547,2.29453 18.540191,9.80446 21.77324,19.72977 1.055645,3.24075 1.402701,5.58875 1.402701,9.49007 0,2.95376 -0.08165,4.00435 -0.449197,5.77663 -1.172843,5.65569 -3.582103,10.46653 -7.264318,14.50555 -4.064442,4.45831 -9.110149,7.42085 -15.060542,8.84258 -2.334148,0.5579 -8.624323,0.70943 -10.950701,0.26463 z"
     id="path4622"
     inkscape:connector-curvature="0" />
  <path
     style="opacity:0;fill:#ff0000;fill-opacity:0.78431373;stroke:#ffffff;stroke-width:0.00285039;stroke-miterlimit:4;stroke-dasharray:none;stroke-opacity:1"
     d="m 47.450867,211.15874 c -3.66936,-0.702 -7.600716,-2.23154 -10.448377,-4.06549 -6.838968,-4.40467 -11.463878,-11.26264 -13.182411,-19.54769 -0.643687,-3.10306 -0.643687,-8.45004 0,-11.55328 1.70227,-8.20635 6.239483,-14.98936 12.999675,-19.43373 2.523258,-1.65881 6.431745,-3.26971 9.726927,-4.00871 2.440012,-0.5475 9.009447,-0.5475 11.453029,-7.4e-4 10.252547,2.29453 18.540191,9.80446 21.77324,19.72977 1.055645,3.24075 1.402701,5.58875 1.402701,9.49007 0,2.95376 -0.08165,4.00435 -0.449197,5.77663 -1.172843,5.65569 -3.582103,10.46653 -7.264318,14.50555 -4.064442,4.45831 -9.110149,7.42085 -15.060542,8.84258 -2.334148,0.5579 -8.624323,0.70943 -10.950701,0.26463 z"
     id="path4624"
     inkscape:connector-curvature="0" />
  <path
     style="opacity:0;fill:#ff0000;fill-opacity:0.78431373;stroke:#ffffff;stroke-width:0.00285039;stroke-miterlimit:4;stroke-dasharray:none;stroke-opacity:1"
     d="m 47.450867,211.15874 c -3.66936,-0.702 -7.600716,-2.23154 -10.448377,-4.06549 -6.838968,-4.40467 -11.463878,-11.26264 -13.182411,-19.54769 -0.643687,-3.10306 -0.643687,-8.45004 0,-11.55328 1.70227,-8.20635 6.239483,-14.98936 12.999675,-19.43373 2.523258,-1.65881 6.431745,-3.26971 9.726927,-4.00871 2.440012,-0.5475 9.009447,-0.5475 11.453029,-7.4e-4 10.252547,2.29453 18.540191,9.80446 21.77324,19.72977 1.055645,3.24075 1.402701,5.58875 1.402701,9.49007 0,2.95376 -0.08165,4.00435 -0.449197,5.77663 -1.172843,5.65569 -3.582103,10.46653 -7.264318,14.50555 -4.064442,4.45831 -9.110149,7.42085 -15.060542,8.84258 -2.334148,0.5579 -8.624323,0.70943 -10.950701,0.26463 z"
     id="path4626"
     inkscape:connector-curvature="0" />
  <path
     id="path4628"
     style="opacity:0;fill:#ff0000;fill-opacity:0.78431373;stroke:#ffffff;stroke-width:0.00285039;stroke-miterlimit:4;stroke-dasharray:none;stroke-opacity:1"
     d="m 52.269676,152.13887 c -2.252806,1.7e-4 -4.497667,0.15022 -5.717674,0.42347 -3.29518,0.73842 -7.20778,2.34905 -9.731039,4.00783 -6.760192,4.44456 -11.299937,11.21204 -13.00221,19.41851 -0.643686,3.10313 -0.643686,8.44072 0,11.54381 1.718534,8.28505 6.355663,15.15498 13.19463,19.55964 2.847661,1.83396 6.776391,3.36244 10.445751,4.06431 2.326377,0.445 8.606392,0.30313 10.940551,-0.25418 5.950392,-1.42199 10.999424,-4.40421 15.063866,-8.86247 3.682211,-4.03904 6.08421,-8.85177 7.257046,-14.50746 0.367619,-1.77231 0.467314,-2.8041 0.467314,-5.75784 0,-3.9013 -0.346288,-6.24266 -1.401928,-9.48347 -3.233064,-9.92531 -11.546085,-17.43419 -21.798633,-19.72889 -1.221791,-0.27342 -3.464866,-0.42342 -5.717674,-0.42342 z m -3.820946,16.39847 c 0.197498,0.0594 0.467012,0.0446 0.577274,0.22515 0.103009,0.16474 -0.543323,-0.11578 -0.577274,0.11579 0.563463,0.32404 1.195229,0.55195 1.704309,0.95948 0.08613,0.0743 -0.05459,0.22953 -0.08248,0.33803 -0.14965,0.57944 -0.329929,1.13876 -0.467313,1.7217 -0.976246,4.14036 -1.753806,8.32292 -2.391525,12.53157 -0.305774,2.01807 -2.285297,1.67934 -1.979195,-0.33802 0.643364,-4.24132 1.435863,-8.47174 2.419015,-12.64454 0.07333,-0.31055 0.161871,-0.62404 0.247407,-0.93212 -0.02857,-0.007 -0.05348,0.007 -0.08248,0 -0.112884,-0.0135 -0.26994,-0.12995 -0.357364,-0.0594 -0.06657,0.0594 0.110773,0.16507 0.109908,0.25418 -0.0017,0.16506 -0.07247,0.31933 -0.109908,0.47989 -0.04936,0.32979 -0.0947,0.66342 -0.164929,0.98849 -0.125813,0.58241 -0.279839,1.14159 -0.412334,1.72154 -0.904834,3.962 -1.754518,7.97817 -2.391526,11.99544 -0.135822,0.8569 -0.217055,1.70864 -0.329858,2.56851 0.003,0.44203 -0.03337,0.88438 0,1.32654 0.138501,-0.007 0.28444,-0.0446 0.357364,0.33803 0.111179,0.57944 0.342483,1.26446 -0.522279,1.66517 -0.408999,0.18937 -0.929214,-0.11578 -1.319466,-0.33803 -0.330293,-0.19239 -0.510644,-1.47229 -0.522283,-1.63698 -0.03843,-0.54305 -0.003,-1.09258 0,-1.63702 0.117508,-0.89019 0.216569,-1.7662 0.357358,-2.65304 0.817389,-5.14937 1.961346,-10.2319 3.161212,-15.29782 0.260825,-0.41009 0.430969,-0.92773 0.79718,-1.24128 0.753088,-0.6463 1.211627,-0.65745 1.979196,-0.45093 z m -5.195383,21.36591 c -0.368735,-0.0446 -0.653652,0.12996 -0.659733,0.81793 -0.01109,1.27165 0.579914,0.0446 1.127039,-0.64855 -0.1662,-0.0743 -0.306892,-0.15291 -0.467306,-0.16945 z m 1.044577,0.39447 c 0.01218,0.0304 0.01488,0.0743 0.02746,0.11578 0.01109,0.0304 0.02997,-0.1009 0,-0.11578 0,0 -0.02746,0 -0.02746,0 z"
     inkscape:connector-curvature="0" />
  <path
     style="opacity:0;fill:#ff0000;fill-opacity:0.78431373;stroke:#ffffff;stroke-width:0.00285039;stroke-miterlimit:4;stroke-dasharray:none;stroke-opacity:1"
     d="m 47.450867,211.15874 c -3.66936,-0.702 -7.600716,-2.23154 -10.448377,-4.06549 -6.838968,-4.40467 -11.463878,-11.26264 -13.182411,-19.54769 -0.643687,-3.10306 -0.643687,-8.45004 0,-11.55328 1.70227,-8.20635 6.239483,-14.98936 12.999675,-19.43373 2.523258,-1.65881 6.431745,-3.26971 9.726927,-4.00871 2.440012,-0.5475 9.009447,-0.5475 11.453029,-7.4e-4 10.252547,2.29453 18.540191,9.80446 21.77324,19.72977 1.055645,3.24075 1.402701,5.58875 1.402701,9.49007 0,2.95376 -0.08165,4.00435 -0.449197,5.77663 -1.172843,5.65569 -3.582103,10.46653 -7.264318,14.50555 -4.064442,4.45831 -9.110149,7.42085 -15.060542,8.84258 -2.334148,0.5579 -8.624323,0.70943 -10.950701,0.26463 z"
     id="path4637"
     inkscape:connector-curvature="0" />
  <path
     style="opacity:0;fill:#ff0000;fill-opacity:0.78431373;stroke:#ffffff;stroke-width:0.00285039;stroke-miterlimit:4;stroke-dasharray:none;stroke-opacity:1"
     d="m 47.450867,211.15874 c -3.66936,-0.702 -7.600716,-2.23154 -10.448377,-4.06549 -6.838968,-4.40467 -11.463878,-11.26264 -13.182411,-19.54769 -0.643687,-3.10306 -0.643687,-8.45004 0,-11.55328 1.70227,-8.20635 6.239483,-14.98936 12.999675,-19.43373 2.523258,-1.65881 6.431745,-3.26971 9.726927,-4.00871 2.440012,-0.5475 9.009447,-0.5475 11.453029,-7.4e-4 10.252547,2.29453 18.540191,9.80446 21.77324,19.72977 1.055645,3.24075 1.402701,5.58875 1.402701,9.49007 0,2.95376 -0.08165,4.00435 -0.449197,5.77663 -1.172843,5.65569 -3.582103,10.46653 -7.264318,14.50555 -4.064442,4.45831 -9.110149,7.42085 -15.060542,8.84258 -2.334148,0.5579 -8.624323,0.70943 -10.950701,0.26463 z"
     id="path4639"
     inkscape:connector-curvature="0" />
  <use
     id="use4641"
     inkscape:spray-origin="#path4639"
     xlink:href="#path4639"
     x="0"
     y="0"
     width="100%"
     height="100%"
     transform="translate(-7.7879213,15.841132)" />
  <use
     id="use4643"
     inkscape:spray-origin="#path4639"
     xlink:href="#path4639"
     x="0"
     y="0"
     width="100%"
     height="100%"
     transform="translate(-10.966605,11.802091)" />
  <use
     id="use4645"
     inkscape:spray-origin="#path4639"
     xlink:href="#path4639"
     x="0"
     y="0"
     width="100%"
     height="100%"
     transform="translate(-8.8327801,-7.6205639)" />
  <use
     id="use4647"
     inkscape:spray-origin="#path4639"
     xlink:href="#path4639"
     x="0"
     y="0"
     width="100%"
     height="100%"
     transform="translate(-6.3036501,-15.147341)" />
  <use
     id="use4649"
     inkscape:spray-origin="#path4639"
     xlink:href="#path4639"
     x="0"
     y="0"
     width="100%"
     height="100%"
     transform="translate(-5.9721913,-3.8186636)" />
  <use
     id="use4651"
     inkscape:spray-origin="#path4639"
     xlink:href="#path4639"
     x="0"
     y="0"
     width="100%"
     height="100%"
     transform="translate(-6.9978013,-11.237638)" />
  <use
     id="use4653"
     inkscape:spray-origin="#path4639"
     xlink:href="#path4639"
     x="0"
     y="0"
     width="100%"
     height="100%"
     transform="translate(-6.6061099,-8.9483175)" />
  <use
     id="use4655"
     inkscape:spray-origin="#path4639"
     xlink:href="#path4639"
     x="0"
     y="0"
     width="100%"
     height="100%"
     transform="translate(-6.3342727,-10.899051)" />
  <use
     id="use4657"
     inkscape:spray-origin="#path4639"
     xlink:href="#path4639"
     x="0"
     y="0"
     width="100%"
     height="100%"
     transform="translate(-10.526399,0.81806825)" />
  <use
     id="use4659"
     inkscape:spray-origin="#path4639"
     xlink:href="#path4639"
     x="0"
     y="0"
     width="100%"
     height="100%"
     transform="translate(-12.352817,6.832554)" />
  <use
     id="use4661"
     inkscape:spray-origin="#path4639"
     xlink:href="#path4639"
     x="0"
     y="0"
     width="100%"
     height="100%"
     transform="translate(-10.701182,12.753108)" />
  <use
     id="use4663"
     inkscape:spray-origin="#path4639"
     xlink:href="#path4639"
     x="0"
     y="0"
     width="100%"
     height="100%"
     transform="translate(-8.3566312,7.7968657)" />
  <use
     id="use4665"
     inkscape:spray-origin="#path4639"
     xlink:href="#path4639"
     x="0"
     y="0"
     width="100%"
     height="100%"
     transform="translate(-3.6587944,9.22881)" />
  <use
     id="use4667"
     inkscape:spray-origin="#path4639"
     xlink:href="#path4639"
     x="0"
     y="0"
     width="100%"
     height="100%"
     transform="translate(3.3192427,17.905016)" />
  <use
     id="use4669"
     inkscape:spray-origin="#path4639"
     xlink:href="#path4639"
     x="0"
     y="0"
     width="100%"
     height="100%"
     transform="translate(6.1345957,15.024219)" />
  <use
     id="use4671"
     inkscape:spray-origin="#path4639"
     xlink:href="#path4639"
     x="0"
     y="0"
     width="100%"
     height="100%"
     transform="translate(2.1058362,9.996156)" />
  <use
     id="use4673"
     inkscape:spray-origin="#path4639"
     xlink:href="#path4639"
     x="0"
     y="0"
     width="100%"
     height="100%"
     transform="translate(1.6725527,8.3653664)" />
  <use
     id="use4675"
     inkscape:spray-origin="#path4639"
     xlink:href="#path4639"
     x="0"
     y="0"
     width="100%"
     height="100%"
     transform="translate(3.8903413,7.8110274)" />
  <use
     id="use4677"
     inkscape:spray-origin="#path4639"
     xlink:href="#path4639"
     x="0"
     y="0"
     width="100%"
     height="100%"
     transform="translate(3.9209529,0.60058153)" />
  <use
     id="use4679"
     inkscape:spray-origin="#path4639"
     xlink:href="#path4639"
     x="0"
     y="0"
     width="100%"
     height="100%"
     transform="translate(0.79427314,-2.2640305)" />
  <use
     id="use4681"
     inkscape:spray-origin="#path4639"
     xlink:href="#path4639"
     x="0"
     y="0"
     width="100%"
     height="100%"
     transform="translate(-1.962114,3.5929398)" />
  <use
     id="use4683"
     inkscape:spray-origin="#path4639"
     xlink:href="#path4639"
     x="0"
     y="0"
     width="100%"
     height="100%"
     transform="translate(4.1223463,-0.73670948)" />
  <use
     id="use4685"
     inkscape:spray-origin="#path4639"
     xlink:href="#path4639"
     x="0"
     y="0"
     width="100%"
     height="100%"
     transform="translate(2.1410121,-6.477494)" />
  <use
     id="use4687"
     inkscape:spray-origin="#path4639"
     xlink:href="#path4639"
     x="0"
     y="0"
     width="100%"
     height="100%"
     transform="translate(-0.65251139,-1.491338)" />
  <use
     id="use4689"
     inkscape:spray-origin="#path4639"
     xlink:href="#path4639"
     x="0"
     y="0"
     width="100%"
     height="100%"
     transform="translate(-4.2287855,0.78844385)" />
  <use
     id="use4691"
     inkscape:spray-origin="#path4639"
     xlink:href="#path4639"
     x="0"
     y="0"
     width="100%"
     height="100%"
     transform="translate(0.29126566,-5.1689609)" />
  <use
     id="use4693"
     inkscape:spray-origin="#path4639"
     xlink:href="#path4639"
     x="0"
     y="0"
     width="100%"
     height="100%"
     transform="translate(-1.1293998,-4.9157796)" />
  <use
     id="use4695"
     inkscape:spray-origin="#path4639"
     xlink:href="#path4639"
     x="0"
     y="0"
     width="100%"
     height="100%"
     transform="translate(-6.6402559,-2.4241469)" />
  <use
     id="use4697"
     inkscape:spray-origin="#path4639"
     xlink:href="#path4639"
     x="0"
     y="0"
     width="100%"
     height="100%"
     transform="translate(-8.604588,-0.30101332)" />
  <use
     id="use4699"
     inkscape:spray-origin="#path4639"
     xlink:href="#path4639"
     x="0"
     y="0"
     width="100%"
     height="100%"
     transform="translate(-2.3886236,-2.2868629)" />
  <use
     id="use4701"
     inkscape:spray-origin="#path4639"
     xlink:href="#path4639"
     x="0"
     y="0"
     width="100%"
     height="100%"
     transform="translate(-4.2022667,3.815629)" />
  <use
     id="use4703"
     inkscape:spray-origin="#path4639"
     xlink:href="#path4639"
     x="0"
     y="0"
     width="100%"
     height="100%"
     transform="translate(-4.6464773,-1.8661958)" />
  <use
     id="use4705"
     inkscape:spray-origin="#path4639"
     xlink:href="#path4639"
     x="0"
     y="0"
     width="100%"
     height="100%"
     transform="translate(-1.3284945,-10.290088)" />
  <use
     id="use4707"
     inkscape:spray-origin="#path4639"
     xlink:href="#path4639"
     x="0"
     y="0"
     width="100%"
     height="100%"
     transform="translate(2.2267061,-5.2891925)" />
  <use
     id="use4709"
     inkscape:spray-origin="#path4639"
     xlink:href="#path4639"
     x="0"
     y="0"
     width="100%"
     height="100%"
     transform="translate(-3.0648473,-4.4172221)" />
  <use
     id="use4711"
     inkscape:spray-origin="#path4639"
     xlink:href="#path4639"
     x="0"
     y="0"
     width="100%"
     height="100%"
     transform="translate(-4.7199466,-14.075948)" />
  <use
     id="use4713"
     inkscape:spray-origin="#path4639"
     xlink:href="#path4639"
     x="0"
     y="0"
     width="100%"
     height="100%"
     transform="translate(-0.9775511,-19.494043)" />
  <use
     id="use4715"
     inkscape:spray-origin="#path4639"
     xlink:href="#path4639"
     x="0"
     y="0"
     width="100%"
     height="100%"
     transform="translate(1.6399188,-12.948051)" />
  <use
     id="use4717"
     inkscape:spray-origin="#path4639"
     xlink:href="#path4639"
     x="0"
     y="0"
     width="100%"
     height="100%"
     transform="translate(-1.6176237,-13.185625)" />
  <use
     id="use4719"
     inkscape:spray-origin="#path4639"
     xlink:href="#path4639"
     x="0"
     y="0"
     width="100%"
     height="100%"
     transform="translate(-1.0409248,-19.582049)" />
  <use
     id="use4721"
     inkscape:spray-origin="#path4639"
     xlink:href="#path4639"
     x="0"
     y="0"
     width="100%"
     height="100%"
     transform="translate(-11.563749,-7.3535105)" />
  <use
     id="use4723"
     inkscape:spray-origin="#path4639"
     xlink:href="#path4639"
     x="0"
     y="0"
     width="100%"
     height="100%"
     transform="translate(-14.25856,-6.0459884)" />
  <use
     id="use4725"
     inkscape:spray-origin="#path4639"
     xlink:href="#path4639"
     x="0"
     y="0"
     width="100%"
     height="100%"
     transform="translate(-14.403846,-0.78670977)" />
  <use
     id="use4727"
     inkscape:spray-origin="#path4639"
     xlink:href="#path4639"
     x="0"
     y="0"
     width="100%"
     height="100%"
     transform="translate(-12.49937,-2.9810866)" />
  <use
     id="use4729"
     inkscape:spray-origin="#path4639"
     xlink:href="#path4639"
     x="0"
     y="0"
     width="100%"
     height="100%"
     transform="translate(-17.332845,6.0663644)" />
  <use
     id="use4731"
     inkscape:spray-origin="#path4639"
     xlink:href="#path4639"
     x="0"
     y="0"
     width="100%"
     height="100%"
     transform="translate(-11.552447,0.58482992)" />
  <use
     id="use4733"
     inkscape:spray-origin="#path4639"
     xlink:href="#path4639"
     x="0"
     y="0"
     width="100%"
     height="100%"
     transform="translate(-6.4658233,6.4238812)" />
  <use
     id="use4735"
     inkscape:spray-origin="#path4639"
     xlink:href="#path4639"
     x="0"
     y="0"
     width="100%"
     height="100%"
     transform="translate(-4.7678215,-8.5032283)" />
  <use
     id="use4737"
     inkscape:spray-origin="#path4639"
     xlink:href="#path4639"
     x="0"
     y="0"
     width="100%"
     height="100%"
     transform="translate(-8.4105627,-0.52124574)" />
  <use
     id="use4739"
     inkscape:spray-origin="#path4639"
     xlink:href="#path4639"
     x="0"
     y="0"
     width="100%"
     height="100%"
     transform="translate(2.1719671,1.4622917)" />
  <use
     id="use4741"
     inkscape:spray-origin="#path4639"
     xlink:href="#path4639"
     x="0"
     y="0"
     width="100%"
     height="100%"
     transform="translate(1.6968295,-4.2618743)" />
  <use
     id="use4743"
     inkscape:spray-origin="#path4639"
     xlink:href="#path4639"
     x="0"
     y="0"
     width="100%"
     height="100%"
     transform="translate(-5.0423024,1.5643153)" />
  <use
     id="use4745"
     inkscape:spray-origin="#path4639"
     xlink:href="#path4639"
     x="0"
     y="0"
     width="100%"
     height="100%"
     transform="translate(7.0968967,7.9282245)" />
  <use
     id="use4747"
     inkscape:spray-origin="#path4639"
     xlink:href="#path4639"
     x="0"
     y="0"
     width="100%"
     height="100%"
     transform="translate(0.78715152,9.0684043)" />
  <use
     id="use4749"
     inkscape:spray-origin="#path4639"
     xlink:href="#path4639"
     x="0"
     y="0"
     width="100%"
     height="100%"
     transform="translate(4.6803418,16.523794)" />
  <use
     id="use4751"
     inkscape:spray-origin="#path4639"
     xlink:href="#path4639"
     x="0"
     y="0"
     width="100%"
     height="100%"
     transform="translate(13.27382,22.952011)" />
  <use
     id="use4753"
     inkscape:spray-origin="#path4639"
     xlink:href="#path4639"
     x="0"
     y="0"
     width="100%"
     height="100%"
     transform="translate(2.3292879,21.62209)" />
  <use
     id="use4755"
     inkscape:spray-origin="#path4639"
     xlink:href="#path4639"
     x="0"
     y="0"
     width="100%"
     height="100%"
     transform="translate(1.6306777,13.740831)" />
  <use
     id="use4757"
     inkscape:spray-origin="#path4639"
     xlink:href="#path4639"
     x="0"
     y="0"
     width="100%"
     height="100%"
     transform="translate(4.0002869,-0.19494329)" />
  <use
     id="use4759"
     inkscape:spray-origin="#path4639"
     xlink:href="#path4639"
     x="0"
     y="0"
     width="100%"
     height="100%"
     transform="translate(0.47682227,4.7095648)" />
  <use
     id="use4761"
     inkscape:spray-origin="#path4639"
     xlink:href="#path4639"
     x="0"
     y="0"
     width="100%"
     height="100%"
     transform="translate(4.2520011,-3.4273319)" />
  <use
     id="use4763"
     inkscape:spray-origin="#path4639"
     xlink:href="#path4639"
     x="0"
     y="0"
     width="100%"
     height="100%"
     transform="translate(6.0297831,4.2488684)" />
  <use
     id="use4765"
     inkscape:spray-origin="#path4639"
     xlink:href="#path4639"
     x="0"
     y="0"
     width="100%"
     height="100%"
     transform="translate(-3.9845433,-1.0669138)" />
  <use
     id="use4767"
     inkscape:spray-origin="#path4639"
     xlink:href="#path4639"
     x="0"
     y="0"
     width="100%"
     height="100%"
     transform="translate(-0.5945254,-4.1526249)" />
  <use
     id="use4769"
     inkscape:spray-origin="#path4639"
     xlink:href="#path4639"
     x="0"
     y="0"
     width="100%"
     height="100%"
     transform="translate(-2.9221201,6.626772)" />
  <use
     id="use4771"
     inkscape:spray-origin="#path4639"
     xlink:href="#path4639"
     x="0"
     y="0"
     width="100%"
     height="100%"
     transform="translate(-1.9517089,3.7547903)" />
  <use
     id="use4773"
     inkscape:spray-origin="#path4639"
     xlink:href="#path4639"
     x="0"
     y="0"
     width="100%"
     height="100%"
     transform="translate(-5.0819492,5.0964164)" />
  <path
     style="opacity:0;fill:url(#radialGradient6231);fill-opacity:1;stroke:#ffffff;stroke-width:0.00285039;stroke-miterlimit:4;stroke-dasharray:none;stroke-opacity:1"
     d="m 47.450867,211.15874 c -3.66936,-0.702 -7.600716,-2.23154 -10.448377,-4.06549 -6.838968,-4.40467 -11.463878,-11.26264 -13.182411,-19.54769 -0.643687,-3.10306 -0.643687,-8.45004 0,-11.55328 1.70227,-8.20635 6.239483,-14.98936 12.999675,-19.43373 2.523258,-1.65881 6.431745,-3.26971 9.726927,-4.00871 2.440012,-0.5475 9.009447,-0.5475 11.453029,-7.4e-4 10.252547,2.29453 18.540191,9.80446 21.77324,19.72977 1.055645,3.24075 1.402701,5.58875 1.402701,9.49007 0,2.95376 -0.08165,4.00435 -0.449197,5.77663 -1.172843,5.65569 -3.582103,10.46653 -7.264318,14.50555 -4.064442,4.45831 -9.110149,7.42085 -15.060542,8.84258 -2.334148,0.5579 -8.624323,0.70943 -10.950701,0.26463 z"
     id="path4775"
     inkscape:connector-curvature="0" />
  <path
     style="opacity:0;fill:#ff0000;fill-opacity:0.78431373;stroke:#ffffff;stroke-width:0.00285039;stroke-miterlimit:4;stroke-dasharray:none;stroke-opacity:1"
     d="m 47.450867,211.15874 c -3.66936,-0.702 -7.600716,-2.23154 -10.448377,-4.06549 -6.838968,-4.40467 -11.463878,-11.26264 -13.182411,-19.54769 -0.643687,-3.10306 -0.643687,-8.45004 0,-11.55328 1.70227,-8.20635 6.239483,-14.98936 12.999675,-19.43373 2.523258,-1.65881 6.431745,-3.26971 9.726927,-4.00871 2.440012,-0.5475 9.009447,-0.5475 11.453029,-7.4e-4 10.252547,2.29453 18.540191,9.80446 21.77324,19.72977 1.055645,3.24075 1.402701,5.58875 1.402701,9.49007 0,2.95376 -0.08165,4.00435 -0.449197,5.77663 -1.172843,5.65569 -3.582103,10.46653 -7.264318,14.50555 -4.064442,4.45831 -9.110149,7.42085 -15.060542,8.84258 -2.334148,0.5579 -8.624323,0.70943 -10.950701,0.26463 z"
     id="path6233"
     inkscape:connector-curvature="0" />
  <path
     style="opacity:0;fill:#ff0000;fill-opacity:0.78431373;stroke:#ffffff;stroke-width:0.00285039;stroke-miterlimit:4;stroke-dasharray:none;stroke-opacity:1"
     d="m 47.450867,211.15874 c -3.66936,-0.702 -7.600716,-2.23154 -10.448377,-4.06549 -6.838968,-4.40467 -11.463878,-11.26264 -13.182411,-19.54769 -0.643687,-3.10306 -0.643687,-8.45004 0,-11.55328 1.70227,-8.20635 6.239483,-14.98936 12.999675,-19.43373 2.523258,-1.65881 6.431745,-3.26971 9.726927,-4.00871 2.440012,-0.5475 9.009447,-0.5475 11.453029,-7.4e-4 10.252547,2.29453 18.540191,9.80446 21.77324,19.72977 1.055645,3.24075 1.402701,5.58875 1.402701,9.49007 0,2.95376 -0.08165,4.00435 -0.449197,5.77663 -1.172843,5.65569 -3.582103,10.46653 -7.264318,14.50555 -4.064442,4.45831 -9.110149,7.42085 -15.060542,8.84258 -2.334148,0.5579 -8.624323,0.70943 -10.950701,0.26463 z"
     id="path6235"
     inkscape:connector-curvature="0" />
  <path
     style="opacity:0.01000001;fill:#ff0000;fill-opacity:0.78431373;stroke:#ffffff;stroke-width:0.00285039;stroke-miterlimit:4;stroke-dasharray:none;stroke-opacity:1"
     d="m 47.450867,211.15874 c -3.66936,-0.702 -7.600716,-2.23154 -10.448377,-4.06549 -6.838968,-4.40467 -11.463878,-11.26264 -13.182411,-19.54769 -0.643687,-3.10306 -0.643687,-8.45004 0,-11.55328 1.70227,-8.20635 6.239483,-14.98936 12.999675,-19.43373 2.523258,-1.65881 6.431745,-3.26971 9.726927,-4.00871 2.440012,-0.5475 9.009447,-0.5475 11.453029,-7.4e-4 10.252547,2.29453 18.540191,9.80446 21.77324,19.72977 1.055645,3.24075 1.402701,5.58875 1.402701,9.49007 0,2.95376 -0.08165,4.00435 -0.449197,5.77663 -1.172843,5.65569 -3.582103,10.46653 -7.264318,14.50555 -4.064442,4.45831 -9.110149,7.42085 -15.060542,8.84258 -2.334148,0.5579 -8.624323,0.70943 -10.950701,0.26463 z"
     id="path6237"
     inkscape:connector-curvature="0" />
  <path
     style="opacity:0.01000001;fill:#ff0000;fill-opacity:0.78431373;stroke:#ffffff;stroke-width:0.00285039;stroke-miterlimit:4;stroke-dasharray:none;stroke-opacity:1"
     d="m 47.450867,211.15874 c -3.66936,-0.702 -7.600716,-2.23154 -10.448377,-4.06549 -6.838968,-4.40467 -11.463878,-11.26264 -13.182411,-19.54769 -0.643687,-3.10306 -0.643687,-8.45004 0,-11.55328 1.70227,-8.20635 6.239483,-14.98936 12.999675,-19.43373 2.523258,-1.65881 6.431745,-3.26971 9.726927,-4.00871 2.440012,-0.5475 9.009447,-0.5475 11.453029,-7.4e-4 10.252547,2.29453 18.540191,9.80446 21.77324,19.72977 1.055645,3.24075 1.402701,5.58875 1.402701,9.49007 0,2.95376 -0.08165,4.00435 -0.449197,5.77663 -1.172843,5.65569 -3.582103,10.46653 -7.264318,14.50555 -4.064442,4.45831 -9.110149,7.42085 -15.060542,8.84258 -2.334148,0.5579 -8.624323,0.70943 -10.950701,0.26463 z"
     id="path6239"
     inkscape:connector-curvature="0" />
  <path
     style="opacity:0.01000001;fill:#ff0000;fill-opacity:0.78431373;stroke:#ffffff;stroke-width:0.00285039;stroke-miterlimit:4;stroke-dasharray:none;stroke-opacity:1"
     d="m 47.450867,211.15874 c -3.66936,-0.702 -7.600716,-2.23154 -10.448377,-4.06549 -6.838968,-4.40467 -11.463878,-11.26264 -13.182411,-19.54769 -0.643687,-3.10306 -0.643687,-8.45004 0,-11.55328 1.70227,-8.20635 6.239483,-14.98936 12.999675,-19.43373 2.523258,-1.65881 6.431745,-3.26971 9.726927,-4.00871 2.440012,-0.5475 9.009447,-0.5475 11.453029,-7.4e-4 10.252547,2.29453 18.540191,9.80446 21.77324,19.72977 1.055645,3.24075 1.402701,5.58875 1.402701,9.49007 0,2.95436 -0.08165,4.00405 -0.449312,5.77663 -1.17968,5.68718 -3.562283,10.4449 -7.264194,14.50555 -4.064446,4.45831 -9.110148,7.42085 -15.060546,8.84258 -2.334153,0.5579 -8.624325,0.70943 -10.950703,0.26463 z"
     id="path6241"
     inkscape:connector-curvature="0" />
  <path
     style="opacity:0.01000001;fill:#ff0000;fill-opacity:0.78431373;stroke:#ffffff;stroke-width:0.00285039;stroke-miterlimit:4;stroke-dasharray:none;stroke-opacity:1"
     d="m 47.450867,211.15769 c -3.662501,-0.69829 -7.599085,-2.22952 -10.448377,-4.06444 -6.838968,-4.40467 -11.463878,-11.26264 -13.182411,-19.54769 -0.643687,-3.10306 -0.643687,-8.45004 0,-11.55328 1.702439,-8.20723 6.239052,-14.98876 13.001204,-19.43477 2.57974,-1.69612 6.348815,-3.24801 9.7401,-4.01013 2.423844,-0.54451 9.000994,-0.54302 11.438327,0.002 10.252547,2.29453 18.540191,9.80445 21.77324,19.72976 1.055645,3.24076 1.402701,5.58876 1.402701,9.49007 0,2.95438 -0.08165,4.00405 -0.449312,5.77663 -1.181379,5.69547 -3.631305,10.57685 -7.312513,14.56974 -4.089075,4.43544 -9.070909,7.34974 -15.012227,8.78212 -2.31715,0.55938 -8.601803,0.70794 -10.950703,0.25991 z"
     id="path6243"
     inkscape:connector-curvature="0" />
  <g
     inkscape:groupmode="layer"
     id="layer1"
     inkscape:label="bottom"
     style="display:inline"
     transform="translate(0,340)">
    <path
       style="opacity:1;fill:#ffffff;fill-opacity:1;stroke:#000000;stroke-width:0.20741607;stroke-miterlimit:4;stroke-dasharray:none;stroke-opacity:1"
       d="M 182.01877,-339.87809 A 181.85567,181.61766 0 0 0 0.16383853,-158.27705 181.85567,181.61766 0 0 0 182.01877,23.352568 181.85567,181.61766 0 0 0 363.87371,-158.27705 181.85567,181.61766 0 0 0 182.01877,-339.87809 Z"
       id="path1059"
       inkscape:connector-curvature="0" />
  </g>
  <g
     inkscape:groupmode="layer"
     id="layer2"
     inkscape:label="top"
     transform="translate(0,340)">
    <path
       d="m 247.55724,-98.615203 c -16.12911,0 -30.48486,7.832413 -39.63315,20.000114 l -0.0844,0.115607 -108.146709,-63.020588 c 1.731139,-4.98559 2.730409,-10.72261 2.730409,-16.70531 0,-5.98269 -0.99927,-11.73416 -2.828933,-17.06656 l 0.112612,0.36128 108.146711,-63.02059 c 9.2468,12.23994 23.57442,20.02901 39.67538,20.02901 27.67005,0 50.09033,-23.03481 50.09033,-51.43093 0,-28.39612 -22.43438,-51.43093 -50.09033,-51.43093 -27.67002,0 -50.09033,23.03481 -50.09033,51.43093 0,4.17632 0.47852,8.23704 1.39335,12.12434 l -0.0704,-0.34684 -109.990432,64.08996 c -9.16235,-10.00006 -22.13883,-16.21397 -36.53681,-16.21397 -27.698168,0 -50.1466331,23.04927 -50.1466331,51.48874 0,28.43946 22.4484651,51.48874 50.1466331,51.48874 14.383907,0 27.360386,-6.22836 36.508664,-16.19953 l 0.02806,-0.029 109.990438,64.089973 c -0.84446,3.526031 -1.32298,7.572299 -1.32298,11.734171 0,28.425022 22.44846,51.4742868 50.13256,51.4742868 27.6841,0 50.13256,-23.0492648 50.13256,-51.4742868 0,-28.425016 -22.44846,-51.474285 -50.13256,-51.474285 0,0 0,0 0,0 v 0 z m 0,-200.506927 c 16.0306,0 29.03524,13.33822 29.03524,29.81231 0,16.47408 -12.99057,29.81231 -29.03524,29.81231 -16.0306,0 -29.03522,-13.33823 -29.03522,-29.81231 v 0 c 0.014,-16.45964 13.00462,-29.78341 29.02115,-29.81231 v 0 z M 52.276713,-128.41306 c -16.030597,0 -29.035223,-13.33823 -29.035223,-29.81232 0,-16.47407 12.990551,-29.8123 29.035223,-29.8123 16.030595,0 29.035222,13.33823 29.035222,29.8123 v 0 c -0.01405,16.45964 -13.004627,29.78342 -29.021148,29.81232 v 0 z M 247.55724,-17.328604 c -16.0306,0 -29.03522,-13.338228 -29.03522,-29.812314 0,-16.474082 12.99056,-29.81231 29.03522,-29.81231 16.0306,0 29.03524,13.338228 29.03524,29.81231 v 0 c -0.0135,16.459628 -13.00464,29.783406 -29.02116,29.812314 v 0 z"
       id="path4"
       inkscape:connector-curvature="0"
       style="stroke-width:14.2613678" />
    <path
       style="opacity:1;fill:#000000;fill-opacity:0.78431373;stroke:#ffffff;stroke-width:0.00285039;stroke-miterlimit:4;stroke-dasharray:none;stroke-opacity:1"
       d="m 245.06584,-17.445244 c -9.46481,-1.157519 -16.95876,-5.80987 -21.88623,-13.587376 -5.09206,-8.037296 -6.01893,-18.454947 -2.44122,-27.438724 3.64565,-9.154404 11.45739,-15.754236 21.17518,-17.89009 2.93706,-0.645528 8.39076,-0.645528 11.32782,0 11.65829,2.562339 20.43618,11.612972 22.74397,23.45064 1.61258,8.271693 -0.32794,16.928478 -5.32292,23.745885 -1.5123,2.064092 -4.89188,5.331886 -6.99511,6.763727 -4.60744,3.136692 -9.75616,4.811922 -15.26766,4.96763 -1.44683,0.04011 -2.94703,0.03638 -3.33383,-0.01181 z"
       id="path6313"
       inkscape:connector-curvature="0" />
    <path
       style="opacity:1;fill:#ff0000;fill-opacity:0.78431373;stroke:#ffffff;stroke-width:0.00285039;stroke-miterlimit:4;stroke-dasharray:none;stroke-opacity:1"
       d="m 47.535503,-128.81653 c -3.512438,-0.63485 -7.681611,-2.25387 -10.533013,-4.0903 -6.838968,-4.40457 -11.463878,-11.26262 -13.182411,-19.54754 -0.643687,-3.10315 -0.643687,-8.45009 0,-11.55324 1.702439,-8.20733 6.239052,-14.9889 13.001204,-19.43487 2.611587,-1.71706 6.312456,-3.24211 9.725398,-4.00763 2.442328,-0.54781 9.010698,-0.54781 11.453029,0 5.850812,1.31232 10.486582,3.89333 14.683315,8.17504 4.291563,4.37848 6.754231,9.05303 8.043284,15.26746 0.367678,1.77252 0.449312,2.82237 0.449312,5.77662 0,3.90242 -0.347692,6.2539 -1.403159,9.48931 -3.192363,9.78588 -11.262798,17.2023 -21.370919,19.63906 -2.217154,0.53454 -8.566779,0.70174 -10.866064,0.28614 z"
       id="path6311"
       inkscape:connector-curvature="0" />
    <path
       style="fill:#3dc300;fill-opacity:0.78431373;stroke-width:0.51276153"
       d="m 243.8385,-239.95378 c -14.13813,-1.92536 -25.07955,-14.91922 -25.04123,-29.7386 0.0339,-13.07644 9.61963,-25.26082 22.28481,-28.32594 15.65255,-3.78807 31.32065,6.64346 34.68959,23.09569 2.19405,10.71465 -2.19257,22.34976 -11.03692,29.2745 -5.4862,4.29543 -14.04402,6.62751 -20.89625,5.69435 z"
       id="path14"
       inkscape:connector-curvature="0" />
  </g>
</svg>
